<svg xmlns="http://www.w3.org/2000/svg" viewBox="0 0 564.51 667.62"><defs><style>.cls-1{fill:#f0326e;}</style></defs><title>Asset 20</title><g id="Layer_2" data-name="Layer 2"><g id="Layer_8" data-name="Layer 8"><path class="cls-1" d="M124.29,212.79c-5.12-12.88-7.61-26.06-4.46-39.87,3.5-15.34,13.49-25.16,27.48-30.9,19.47-8,37.48-4.37,53.93,8.3.37.29.74.59,1.12.87l1.75,1.26c1.21-.72.38-1.91.6-2.82.69-2.83.24-4.74-3.64-4.41-4.19.36-8.47-3.4-8.66-8-.17-4-2.39-4.29-5.29-4.86-10.07-2-19.67-5.1-27.84-11.73-3.51-2.85-6.08-6.22-7-10.58a6.45,6.45,0,0,1,2.83-7c3.75-2.61,7.87-2.89,12.15-1.76.67.18,1.23.67,2.13,0a57.64,57.64,0,0,1-4.84-11,23,23,0,0,1-.42-9.62c.66-5.84,5.18-8.19,11.11-6.44,7.68,2.27,11.55,8.34,15.18,14.73a14.14,14.14,0,0,0,.84,1.17c1.31-1.41,1.5-3.08,2.13-4.54,1.95-4.49,4.81-6.61,8.74-6.46,3.61.14,7.51,3.13,8.83,7,2.42,7,1.34,14.09-.35,21a65.87,65.87,0,0,1-6,16.35c-.44.81-.86,1.71.49,2.59,8,5.17,9,9.52,4.05,17.11a2.72,2.72,0,0,0,.54.45c3.81,1.8,3.81,1.8,4.26-2.52,1.31-12.34,5.16-23.72,13-33.47a40.66,40.66,0,0,1,26.1-15c12.45-2,24.19-.48,35.06,5.87,11.18,6.54,18.95,16.16,23.68,28.19,1,2.53,1.87,3.64,4.2,1.21,2-2.1,4.24-4,6.6-6.23-3.3-2.2-5.85-4.83-5.81-9a5,5,0,0,1,.26-2.4c2.17-3.51-.21-5.05-2.6-6.88-6.94-5.3-13-11.45-17.14-19.24a25.69,25.69,0,0,1-3.05-10.37c-.46-6.54,3.94-10.45,10.39-9.27,3.57.66,4.35,1.1,9.29,5.34.51-1.77,0-3.33-.16-4.84-.77-6.37,1.15-12,4.74-17.13,2.73-3.89,7.26-4.36,11.13-1.67,7,4.86,7.65,12.31,8.38,19.78.07.68,0,1.38,0,2.07,0,.42.09.83.2,1.85,2-2,3.27-4,5.22-5.31,6.06-4.14,13.16-1.13,14.32,6.1,1,6.35-2,11.38-5.18,16.3-4.46,6.79-10.22,12.39-16.46,17.53-1,.85-1.81,1.4-.75,3.26,2.9,5.08.69,11.07-4.61,13.88-.88.47-2.16.73-1.59,2.23.28.73.48,1.78,1,2,1.08.52,1.52-.71,2.17-1.34,9.68-9.41,20.9-16.24,34.39-18a41.24,41.24,0,0,1,29.13,7.27c10.57,7.24,18.39,16.53,21.69,29.23a65.17,65.17,0,0,1,1.61,22.54,12.64,12.64,0,0,0,.07,1.73c-1.18,2.23-1.19,4.72-2,7.35,1.59-.29,2.71-.68,2.41-2.2-.35-1.79.49-3.41.45-5.13,2.1-2.3,3.76-5,7.35-5.56,1.84-.28,1.11-2.43,1.05-3.61-.35-7.13-.53-14.24.75-21.29,1-5.54,2.56-10.93,6.06-15.51,3.68-4.81,7-6.14,11.3-4.64,3.79,1.32,6.87,6.59,6.58,11.46,0,.81-.44,1.59,0,2.45,1.23.17,1.88-.89,2.48-1.58a26.85,26.85,0,0,1,15.88-8.81c5.27-.94,8.73,1.3,9.53,6.33a17.15,17.15,0,0,1-3.38,13.6,78.89,78.89,0,0,1-7.38,8.65c1.79,1.61,3.9.66,5.73,1.17,3.45,1,6.45,2.32,7.42,6.08a9.25,9.25,0,0,1-3.37,10.28c-5.71,4.61-12.49,5.56-19.43,5.92-6.43.34-12.83-.56-19.19-1.3-1.74-.2-1.88.19-2.24,1.44-2.22,7.57-5.58,9.79-13.38,8.89-.52-.06-1.18-.66-1.32.29a7.32,7.32,0,0,0,.07,2.78c.16.64.8.45,1.44.26,2.79-.81,5.6-1.61,8.45-2.19,11.65-2.36,23.24-2.19,34.39,2.15,14.8,5.75,23.21,17.23,27.15,32.21,4.46,17-.09,32-10.14,45.83a53.58,53.58,0,0,1-5.25,5.64c-.57.59-1.43,1.08-1.15,2s1.16.58,1.83.78c1.94.56,3.27,1.29,4.34-1.74a8.63,8.63,0,0,1,9.07-6c2.23.16,2.84-.64,3.6-2.56,3.23-8.16,6.73-16.21,12.53-23,2.85-3.33,6.16-6.16,10.34-7.53,3-1,6.43-1.68,9,.88,3.24,3.22,4,7.35,2.79,11.74a38.33,38.33,0,0,1-1.86,4.49c2.78-.07,4.87-1.43,7-2.24,5.73-2.17,11.31-1.32,16.69.66,4,1.46,5,6.84,2.82,11.3-2.83,5.85-7.75,9.19-13.5,11.58-1.57.65-3.19,1.2-5.22,2,2.13,1.48,4.23,2.13,6,3.39,3.28,2.35,5,5.21,4.07,9.26s-3.64,6.29-7.59,7.33c-7.68,2-14.7-.58-21.62-3.19a70.63,70.63,0,0,1-15.39-8.18c-1.15-.8-1.62-.19-2.3.47-4,3.86-8.49,4.74-13.36,1.82-1.58-.95-2.12-.09-2.6,1-.72,1.63.84,1.28,1.53,1.47,12.46,3.54,23.92,9,32.89,18.55,10.67,11.37,14.26,24.81,11,40.21-4.48,21.29-17.84,34-38,40.39-2.4.76-4.92,1.15-7.36,1.71-.35,1.53,1.21,1.63,1.68,2.53.89,1.7,1.92,1.61,3.5.37,4.38-3.44,9.14-3.38,13.09.41,1.91,1.84,3.14,1.31,4.93.24,9.39-5.65,19.19-10.22,30.4-10.77,4.79-.23,9.31.61,12.88,4.1,3.77,3.67,1.05,10.79-3,13.66a21.5,21.5,0,0,1-6.41,3.16c4.67,1.18,8.62,2.32,12.13,4.6a25.66,25.66,0,0,1,7.68,8c2.38,3.75,1.27,7.85-2.35,10.42-6.72,4.77-13.78,3.34-20.87,1.2-1.22-.37-2.38-.93-3.76-1.48-.56,2.1,1.08,3.32,1.52,4.87,1.34,4.81.58,8.8-2.51,11.24-2.93,2.32-7.74,2.29-11.64.15-5.94-3.27-9.28-8.8-12.47-14.37A70.09,70.09,0,0,1,504,405.88c-.51-2-1.45-1.72-2.78-1.36-5.87,1.57-10.65-.57-12.79-6-.61-1.54-1-2.17-2.63-1.37-1.87.91-3.83,1.64-5.86,2.5,15.81,17.63,26.71,36.83,15.21,60.44-10.85,22.27-30.34,30.75-55.44,28.61,2.65,2.91,5.17,4.62,6.25,7.61.57,1.59,2.31.71,3.5.57,9.87-1.14,19.64-1,29.23,2a21,21,0,0,1,6.47,3.51c3.06,2.35,5.81,5.11,4.73,9.45-1.15,4.59-4.64,6.83-9,7.75-1.81.38-3.68.45-5.77.68,2.1,2.31,4.78,3.78,6.72,6.1a24.14,24.14,0,0,1,5.85,12.51c.71,5.47-1.63,8.31-7.14,9.09-5.78.81-10.78-.95-15.26-4.48-2-1.6-4-3.28-6.5-5.31-.36,2.84-.63,5.24-1,7.63-1,7.17-9.47,8.12-13.81,5-5.79-4.18-7.23-10.4-8.25-16.76-1.21-7.54-1.69-15.16-.38-22.76.29-1.68-.65-2.15-1.93-2.71-6.46-2.82-8.37-6.93-6.54-14-3.07-.44-6.12-1-9.19-1.3-2.41-.27-3.5.46-3,3.36,1.52,9.54,2.27,19.09,0,28.7-4.15,17.72-15.08,28.87-32.31,34a49.71,49.71,0,0,1-31.45-.71,57.07,57.07,0,0,1-25.9-19c-2.11,4.48-2.08,4.57,2.07,6.63,4.4,2.19,6.21,5.8,5.14,11-.42,2-.08,2.93,1.84,4,9.05,5.25,17.82,10.92,24.12,19.58a20.14,20.14,0,0,1,4.34,11.62,8.23,8.23,0,0,1-9.92,8.42c-2.37-.45-4.82-.9-6.7-2.67-.63-.59-1.41-1.22-2.12-.51-.34.34-.23,1.36,0,2a26.53,26.53,0,0,1-.55,17.24c-2.93,8.47-9.61,8-15.19,3.43-4.63-3.8-6.2-9.19-7.47-14.66a26.15,26.15,0,0,0-1.4-4.2c-2,2.09-3.56,4.51-6,6.12a8.79,8.79,0,0,1-12.84-3.88,16.67,16.67,0,0,1-.18-11.92c3.39-9.95,9.2-18.46,16.36-26,1.45-1.53,1.44-2.11-.11-3.45-5-4.34-4.86-11.1.23-15.56.55-.48,1.87-.61,1-1.69a5.41,5.41,0,0,0-2.52-1.83c-.81-.22-.69,1-.93,1.57C309.25,557,302.83,568,292.19,576A42.18,42.18,0,0,1,263,584.51a51.07,51.07,0,0,1-46.32-38.08c-1-3.57-1.8-7.2-2.51-10.84-.17-.88.14-2.23-.67-2.51-1.49-.51-1.78,1.48-3,2s-.54,1.5,0,2.38a10.9,10.9,0,0,1,1.76,7.16c-.15,1.31-.24,2.86-1.14,3.59-3.83,3.11-1.75,6,0,9,4.43,7.8,7.69,16,8.28,25.08a24.2,24.2,0,0,1-1.5,10c-2.55,7.08-9.68,6.94-14.76,2.44-2.13-1.89-3.1-4.49-4.67-7.68-1.36,5.66-3,10.32-6.33,14.2a23,23,0,0,1-5.79,5c-4.63,2.72-8.5,1.73-11.35-2.89-4.06-6.59-2.79-13.33-.61-20.11.35-1.1,1.54-2.43.75-3.29-1.07-1.17-2.38.26-3.47.72-4.47,1.88-9,1.26-11.71-1.77s-2.85-8.25-.25-12.44c3.65-5.89,9.3-9.39,15.13-12.63A75.26,75.26,0,0,1,190,547.65c2.05-.61,3.21-1.34,2.86-4-.63-4.87,2.78-9.11,8.1-10.23,2.13-.45,2.21-1.32,1.57-2.85-1.74-4.19-2.53-8.75-5.22-12.84-2.61,1.69-5.23,3.54-8,5.14-10.31,6-21.26,10-33.37,9.29a42.43,42.43,0,0,1-26.61-11.3c-10-9.1-16-20.41-17.21-33.93A55.93,55.93,0,0,1,119,454.77c1.51-2.8,1-3.36-1.76-3.32-.11,0-.22-.1-.33-.1-1.5,0-3.15-1.23-4.38-.39s-.15,2.58-.29,3.93c-.49,4.87-4.49,9.34-9.46,9.49-2.36.07-2.46,1.11-2.76,2.71-1.65,9-3.62,17.86-8.26,25.9-2.24,3.88-4.88,7.42-8.58,9.91-3,2-6.54,3.4-9.95,1.3-4-2.47-5-6.67-4.68-11.11a45.1,45.1,0,0,1,1.1-5.58c-5.18,3.75-10.32,6.38-16.38,6.51-.82,0-1.64.12-2.46.06-9-.63-12.11-6.8-7.7-14.91,2.71-5,7.14-7.92,11.58-11,.84-.58,1.79-1,3.23-1.77-2.05-.74-3.62-1.35-5.21-1.86-3.64-1.17-6.24-3.54-6.7-7.32-.48-4,1.25-7.15,4.83-9.35,5.05-3.1,10.52-2.67,16-2.31,8.19.54,15.7,3.65,23.29,6.39,1.41.51,2,.95,2.83-1.09,2.16-5.44,7.67-7.68,13.34-5.83.82.27,1.42.91,2-.26s1.48-2.11,1.39-3.08-1.54-.49-2.39-.53c-13.56-.55-26.51-3.28-37.4-11.9-12.08-9.56-16.67-22.53-16.6-37.69A48.9,48.9,0,0,1,61,365.19a54.47,54.47,0,0,1,21.48-19.64,16.2,16.2,0,0,0,1.61-1.1c-1.37-2.1-3.68-2.28-5.65-3.06-1.21-.48-1.27.55-1.71,1.19-3.08,4.5-6.9,6-11.95,4.43-1.84-.59-2.74-.13-3.79,1.27C56.69,354,52.22,359.59,46.48,364c-5,3.87-10.35,6.79-17.05,7.25-6.43.44-9.91-5.18-8.41-11.57.74-3.15,3.05-5.21,4.95-8.08-3.75.12-7.18,1-10.65.52-4.94-.7-9.46-2.23-13.17-5.77-2.69-2.58-2.65-5.49-1-8.34A17.65,17.65,0,0,1,13.51,329c3.4-.64,6.74-1.6,10.51-1.47-.89-2.72-3.23-3.75-4.5-5.7-1.84-2.83-2.65-5.69-1.23-8.61a9.81,9.81,0,0,1,9-5.69c6.77-.23,12.16,3.13,17.26,6.87A72.3,72.3,0,0,1,59.25,328c1.12,1.44,2.35,2.05,4.48,1,4.67-2.28,9.07-1.13,12.58,3,1.07,1.26,1.94,1.24,2.91.33,2.63-2.46,5.66-4.49,8-7.34-11.69-8.22-21.74-17.66-27.43-31.15-8.83-20.92.78-42.83,16.34-54.9,9.31-7.23,20.12-10.47,31.73-10.94,4.62-.19,9.28.69,14.07,1.1.25-3.2-1.39-5.87-2.43-8.68-.54-1.48-1.43-.45-2.22-.05-6.31,3.17-9.55,2.57-14.23-3.05-1.77-2.12-3.34-.54-4.7,0a70.19,70.19,0,0,1-24.57,5c-5.32,0-10.45-.68-14.84-4.15-4.55-3.59-4.78-9.36-.42-13.22a19.6,19.6,0,0,1,8.82-4.25c-2.71-2.52-5.92-3.36-8.36-5.45a26.72,26.72,0,0,1-7.4-9.63c-3-7,1.06-10.64,8.19-12.07,5.23-1,10.14.84,14.82,3.12,1.64.8,3.25,1.67,5.06,2.6a5.43,5.43,0,0,0-.15-3.16c-1.32-6,.1-10.22,4-12,4.74-2.19,10.09-.66,13.75,3.86,5.21,6.44,7.79,14,9.66,21.94.87,3.66,1.87,7.32,2,11.12,0,1.37.58,1.73,2,1.61a9.87,9.87,0,0,1,10.8,9.38c.08,1.51.64,1.87,1.95,1.61C124.68,214.2,124.51,213.52,124.29,212.79Zm315,275.89-8-2.06c1,3.22,1,3.19,3.53,3,1.52-.11,3-.1,4.56-.14.27-.1.75-.17.77-.3C440.24,488.53,439.76,488.59,439.32,488.69ZM117,414.07a6.39,6.39,0,0,1-2,.51c-3.16-.28-4.59,1.16-5.18,4.23-.94,4.92-2.22,9.78-3.39,14.65-.13.55-.5,1,.12,1.55,1.23,1.08,6.13,0,6.64-1.56a98.21,98.21,0,0,0,4.45-18.74l.24-.76Zm78.73,146.65a58.78,58.78,0,0,0-15.33,24c-1.37,4.24-2.25,8.59-1.46,13.1.62,3.55,2,4.2,4.91,2.19a14.38,14.38,0,0,0,3.82-3.57c7.18-10.61,8.44-22.69,8.75-35,.59-.38.61-1,.17-1.33S196,560.38,195.76,560.72ZM94,203.18c.25.44.61.62,1,.23.08-.08-.18-.51-.28-.78-4.5-6.34-9.6-12.15-16.06-16.52-5.33-3.61-11.08-6.45-17.69-6.94-2.89-.21-4.38,1.67-3.07,4.2,1,1.93,1.86,4,3.57,5.54C70.71,197.22,82.1,200.73,94,203.18ZM417.7,181.63c-9,3.14-18.42,3.15-27.78,3.23-11.5.09-22.41,1.67-30.62,10.94a3.66,3.66,0,0,1-4.24.78c-1.39-.58-1.7-2.2-1.41-3.68a16.07,16.07,0,0,0-.42-6.31c-2.16-10.71-7.18-20.2-12.94-29.32-5.42-8.6-11.33-16.9-15.47-26.25-.77-1.73-1.47-1.74-2.72-.61-7.86,7.1-17.42,11.74-25.9,17.94-8.78,6.41-16,13.92-18,25.17-.28,1.59-.88,2.87-2.64,3.34a3.66,3.66,0,0,1-4-1.49c-8.48-9.82-19.56-15-32-17.48-8.77-1.78-17.84-2.23-26.23-5.65-2.24-.91-2.45.47-2.63,1.68a40.78,40.78,0,0,1-2.52,8.72c-3.51,9.28-9.33,17.42-12.89,26.7-3.17,8.28-3.93,16.32-.19,24.5.67,1.48,1,2.87-.2,4.08-1.77,1.85-3.8,1.33-5.73.24-8.78-4.94-17.92-4.19-27.13-1.68-10.52,2.86-21,6-32.07,5.34-3-.17-2.48,1.31-2,2.84,2.85,8.84,2.75,18.07,3.5,27.15.94,11.45,2.65,22.52,9.93,32,2.75,3.57,1.77,5.77-2.78,6.3-10,1.15-18.05,6.08-25.1,12.91-10.59,10.26-18,23.28-29.38,33.31,9.65,4.29,16,11.83,22.45,19.21,8.71,9.94,18.54,18.16,31.92,21.08,1.45.32,3.35.29,3.51,2.71a4.25,4.25,0,0,1-2.17,4.07,29.75,29.75,0,0,0-9.11,11c-2.93,5.78-4.55,12-5.85,18.31-2.11,10.2-4,20.45-8.54,30-.84,1.77-.22,2.33,1.35,2.5,8.68,1,16.74,4.25,25,6.78,13,4,25.86,7.62,39.44,2.52,3-1.14,5.11,1.07,4,4-3.15,8.48-1.32,16.67,1.76,24.51,5.87,15,15.39,28.27,20.28,43.73.29.9.71,1.55,2.09.56A62,62,0,0,1,227,519c14.64-4.85,27.41-12.37,37-24.78,2.69-3.5,5-3.3,6.68.67,2.81,6.53,7.3,11.66,12.74,16.09,10.5,8.54,22.39,15.18,32.73,23.95.75.64,1.35,1.7,2.69,1.52,2.84-8.77,8.11-16.17,13.36-23.62,4.45-6.31,9-12.6,11.73-19.91,1.8-4.82,3.19-9.75,2.77-15a4.23,4.23,0,0,1,2.21-4.43,2.4,2.4,0,0,1,3.17.31c9.82,8.61,21.77,11.22,34.31,12.22,12.07,1,24.21.22,36.26,1.54,1.2.13,1.68-.17,1.44-1.49a76.71,76.71,0,0,1-1.2-7.9c-.64-8.41.18-16.8.5-25.2.41-10.63-.38-21.08-7-30.18-1.13-1.55-3.22-3.07-1.42-5.53,1.66-2.26,3.67-2,5.89-1.1.4.17.93,0,1.39.05,11.13,1.36,21-2.45,30.47-7.58,10-5.43,19.3-12.24,30.17-16.78a56.22,56.22,0,0,1-7.89-12.08c-3.75-8-7.41-16.09-11.4-24-4.32-8.57-10.81-14.93-20.05-18.13-1.51-.52-3.68-.33-3.63-2.54,0-1.86,1.21-3.15,3-4.25,10-6,18.72-13.37,24.56-23.6,5.16-9,8-19.21,13.48-28.11,1-1.61-.61-1.6-1.47-1.85-7.29-2.07-13.55-6.13-19.84-10.16-4.42-2.83-8.75-5.85-13.32-8.41-8.12-4.55-16.64-7.28-26.19-5.15-3.44.77-5.22-1.45-3.82-4.35,4.8-9.94,5.53-20.4,4.45-31.18-.93-9.36-2.55-18.65-2.68-28.1C418,187.24,418.85,184.37,417.7,181.63ZM266.07,501.51c-5.38,5.6-10.58,11-17.15,14.64-1.52.85-1.52,2.38-1.62,3.63a43,43,0,0,0,3.1,19.5c3.65,9.15,12.41,12.81,21.49,9,7.44-3.15,15.25-17.17,14.05-25.16a2.86,2.86,0,0,0-1.44-1.9C277.21,515.82,270.82,509.59,266.07,501.51Zm86.82-18.29c-.88,8-3.91,14.8-7.61,21.28a5,5,0,0,0-.15,5.49,43.49,43.49,0,0,0,9.2,12.26c4.86,4.46,10.6,6.8,17.21,4.67,7-2.26,10.71-7.51,11.85-14.64s-1.13-13.55-3.9-19.89c-.48-1.09-1.42-.93-2.38-1A59.67,59.67,0,0,1,352.88,483.23Zm97.69-150a42.36,42.36,0,0,1,18,17.77c1,1.91,2.13,2.33,4.31,2.45,4.7.24,9-.91,13.33-2.36,12.84-4.31,16.87-18.17,8-27.52-6.22-6.55-14.35-8.36-23-8.71a1.87,1.87,0,0,0-1.74.9A74,74,0,0,1,450.57,333.27ZM369.23,140.71c-7.41.47-18.5,9.36-20.76,16.48-.31,1,.27,1.24.57,1.76,4.63,8.24,9.24,16.49,10.23,26.15.17,1.63.89,1.66,2.07.89a43.92,43.92,0,0,1,17-6.15c.79-.13,2,.28,2.44-.88,2.42-6,5.61-11.81,6.17-18.45C387.91,148.68,380.15,140,369.23,140.71Zm-237.31,241A61,61,0,0,1,121.11,377a50.64,50.64,0,0,1-9.23-6.47,3,3,0,0,0-3.17-.61,36.33,36.33,0,0,0-17.47,9.76c-7.81,8.11-6.2,19.06,2.62,25.07,7.32,5,15.64,4.41,23.9,2.52a3.26,3.26,0,0,0,2.54-2.66A48.74,48.74,0,0,1,131.92,381.67ZM424.49,246.55c6.13-.38,12.21-.09,16.82,3.25,6.3,4.56,10.15,1,14.43-2.58a23.79,23.79,0,0,0,3-3c4.51-5.43,7.81-11.34,5.29-18.65S454.94,214.06,446.9,214c-6.27,0-11.86,2-17.29,4.92-1.57.84-2.31,1.64-2.25,3.4C427.62,230.47,427.19,238.55,424.49,246.55ZM465,436c-1.43-7.55-7.64-13.77-16-18.32-1.23-.67-2,.19-2.88.53-6.32,2.47-12.66,4.78-19.61,4.37-1.75-.1-1.92.49-1.19,2.11,3.34,7.4,5.93,15,5.15,23.35-.24,2.57,1,3.84,3.37,4.9a44.38,44.38,0,0,0,11.34,3.29C457.14,458.07,466.47,449.65,465,436ZM151.58,191.8c.63,6.9,4.17,12.51,8,18,.8,1.14,1.58.76,2.67.54,7.23-1.48,14.51-2.86,21.84-.9,2.82.76,2.93-.37,2.51-2.53a32.83,32.83,0,0,1,1.88-18.33c1.27-3.26.07-4.84-2-6.43-3.05-2.39-5.85-5.15-9.36-6.91-3.34-1.68-6.76-3.27-10.62-3.08C157.15,172.63,150.42,181.52,151.58,191.8Zm-17.9,92.87a55.93,55.93,0,0,1-7.48-17.87,3.68,3.68,0,0,0-2.71-2.84c-6.54-1.89-13.18-3.58-19.95-1.79-7.81,2.07-12.49,8.19-12.28,16.47.22,8.52,8.38,17.23,16.33,20.12,1.62.59,2.48,0,3.62-1.15C117.48,291.51,124.65,286.88,133.68,284.67ZM178.56,462a55.9,55.9,0,0,1-23.7-.63,2.37,2.37,0,0,0-2.85,1.44c-2.8,4.91-5.51,9.77-6.87,15.46-2.75,11.51,7.12,21,17.6,19.93,6.23-.64,11.37-3.5,15.82-7.61,1.89-1.75,4-3.56,2.44-7C178,476.77,177.44,469.59,178.56,462Zm94.6-294.82c2-5.09,4.35-9.54,8.09-13,2.63-2.44,3.78-5.14,2.67-8.67-1.72-5.5-4-10.68-8-15-6.55-7.12-15.65-6.89-22.07-1.69-5.48,4.44-7.79,10.94-7.86,18-.05,5.51.13,5.5,5.73,7.32.89.29,1.73.71,2.6,1.05A60.62,60.62,0,0,1,273.16,167.13Zm243.11,233c8,8.06,16.13,13.79,26,16.79,4,1.22,8.1,2.12,12.37,1.35,3.36-.61,4.19-2.27,2.19-5a17.84,17.84,0,0,0-6.43-5.91C539.9,402.28,528.67,400.83,516.26,400.18ZM50.47,339.24c-.5-.45-.72-.78-1-.89-10.3-3.85-20.82-6-31.85-4a20.76,20.76,0,0,0-9.26,3.89c-2.68,2.1-2.71,3.08.19,4.88a18.77,18.77,0,0,0,9.57,3C29.32,346.35,39.77,343.11,50.47,339.24ZM328,573.51c-.24.28-.62.52-.68.82-1.78,9-3.35,18-1.53,27.15,1.09,5.48,2.42,10.94,6.9,14.94,1.87,1.67,2.91,1.15,4-.83a17.73,17.73,0,0,0,2-9.76C338,594.1,332.9,583.86,328,573.51ZM191.78,119.75c-.48-8-1.37-15.12-4.06-21.75s-5.88-12.76-11.79-17.11c-1.21-.89-2.39-1.58-3.85-1.14-1.7.51-1.66,2.16-1.82,3.52a20,20,0,0,0,2.47,11.89C177.52,104.17,183.91,112,191.78,119.75ZM326,94.9c2.25-3.12,2.67-6.59,3.66-9.76a49.63,49.63,0,0,0,1.91-22.5c-.52-3.44-1.33-6.9-3.52-9.81-2-2.6-3.74-2.61-5.28.27-2.34,4.39-3.72,9-3,14.11.46,3.39.64,6.82,1.21,10.19A78.09,78.09,0,0,0,326,94.9Zm122.9,415.89c3.83,9.94,9,18.29,16.5,25,3.56,3.19,7.59,5.73,12.54,6.53,3,.48,3.72-1.15,3.17-3.29a22,22,0,0,0-5.46-10.41C468,521,458.92,515.68,448.89,510.79ZM442.26,157c.59.15.85.31,1,.25,1.3-.48,2.59-1,3.87-1.53,9.57-4.07,18.5-9.06,24.76-17.72,1.63-2.26,3.2-4.61,3.68-7.46.39-2.33-.33-3.69-3-3.39a19,19,0,0,0-10.2,4.17C453.85,138.28,448,147.39,442.26,157ZM86.58,465.22c-10.08.94-19,2.77-27,7.41-4.29,2.46-8.28,5.3-11.13,9.47-.8,1.18-1.7,2.54-1.2,3.84.58,1.53,2.17,1.89,3.84,1.86,3.08-.05,6.11-.22,9-1.58C70.16,481.33,78.32,473.95,86.58,465.22ZM511.71,267c7.59.54,15,1,22.33-1.19,6.38-1.88,12.21-4.51,17.16-9a3.84,3.84,0,0,0,1.43-3.75c-.31-1.56-1.69-1.84-3-2.11a16.19,16.19,0,0,0-6.24-.57C531.08,252.56,521.22,259.42,511.71,267ZM220.39,535.12a10.36,10.36,0,0,1,.15,1.4c-.08,3.1,1.14,3.43,3.78,2.15,3.13-1.52,6.46-2.62,9.7-3.92,2.26-.91,5-1.33,6.61-2.92s.28-4.57.27-6.93a20.84,20.84,0,0,1,.24-2.45c.23-1.95-.85-2.28-2.25-1.54-4.23,2.24-8.89,3.35-13.24,5.26C219.71,528.78,219.68,528.72,220.39,535.12ZM387.63,178.81c5.7-.15,11.07.33,16.43-.38,6.08-.81,6.09-.72,7.7-6.5,1-3.48.5-4-3.11-4-4.33.07-8.66,0-13,0-2.45,0-4.49.37-5.16,3.45C390,173.88,388.69,176.17,387.63,178.81ZM435,153.67c5.77-6.86,10.85-14.07,11.67-23.24.22-2.48.83-6.34-2.23-7.12s-4.82,2.46-5.94,5A49.41,49.41,0,0,0,435,153.67Zm-248-27.44c-6-8.35-11.79-15.65-21.37-18.42-2.05-.59-5-2.18-6.33.49s1.05,4.94,2.85,6.92a5.36,5.36,0,0,0,.85.63C170,120.94,178,123.74,187.07,126.23ZM451,503a60.06,60.06,0,0,0,16.45,9c4.1,1.45,8.28,2.24,12.66,1.1,1.33-.35,2.67-.75,3-2.05s-.66-2.37-1.61-3.24a12.34,12.34,0,0,0-5.06-3.05A66.86,66.86,0,0,0,451,503ZM318.38,99c.21-4.66-1-8.32-2.19-11.81-1.76-5.15-4-10.24-8.54-13.75-1.72-1.32-3.68-3.74-5.7-2.38-2.45,1.65-1.54,4.76-.52,7.15C305,86.57,311.23,92.77,318.38,99ZM516,392.49c9.13,1.65,17.65,3.21,26.14-.32,2.57-1.07,6.1-2.3,5.45-5.32s-4.5-3-7.4-3a35,35,0,0,0-12.93,2.9C523.59,388.22,519.51,389.13,516,392.49ZM93.14,469.89a52.67,52.67,0,0,0-13.35,12.74c-2.81,3.88-5.22,8-4.61,13.14.33,2.84,1.76,3.14,4.14,1.78A15.09,15.09,0,0,0,85.05,492,66.71,66.71,0,0,0,93.14,469.89Zm1.69-258c-1.9-.81-3.23-1.45-4.61-1.94-6.95-2.5-14-4.41-21.46-2.82-2.55.55-6.56,1.16-6.5,4,.07,3.72,4.17,4.35,7.3,4.64C78.07,216.54,86.25,214.89,94.83,211.86ZM334.31,569a48.69,48.69,0,0,0,5,12.45c2.57,4.58,5.53,9.1,10.43,11.57,1.56.79,3.57,2.61,5.36,1,2-1.8.86-4.08-.13-6.11l-.62-1.25c-2.22-4.41-6.11-7.37-9.57-10.64A39.35,39.35,0,0,0,334.31,569ZM505.15,261c2.5.2,3.91-1.55,5.49-2.51,5.93-3.6,11.39-7.87,14.7-14.2,1.2-2.29,3-5.43,1-7.33-2.71-2.49-5.82.17-7.73,2.07C512.41,245.2,508.2,252.69,505.15,261ZM205,558.77a46.55,46.55,0,0,0-1.71,20.79c.5,3.32,1.25,6.7,3.74,9.34.95,1,1.57,2.49,3.27,2.11s1.94-1.89,2.47-3.18c1-2.43.4-4.89.12-7.34C212,572.83,208.72,566.09,205,558.77ZM54.49,346.24c-8.39,1.55-16.56,3.56-23.06,9.56-2.35,2.17-4.79,4.44-3.81,8,.41,1.51,6.06,1.1,8.89-.66A62.91,62.91,0,0,0,54.49,346.24ZM339.6,513.3c-2,2.92-3.79,5.78-5.85,8.44a76,76,0,0,0-5.4,8.58c-.94,1.63,2.6,8.34,4.47,8.64.8.13,1-.48,1.31-.89,3.43-4.72,6.86-9.45,10.23-14.22.58-.82,1.45-1.93.45-2.85C342.53,518.9,341.64,515.89,339.6,513.3Zm35.3,42.1c2.77-.89,5.49-2,8.31-2.61,2.37-.53,2.31-1.47,1.33-3.27-2.73-5-5.34-10.08-8-15.12-.59-1.11-1-2.7-2.74-1.83-1.22.62-3,.52-2.75,3.11.54,5.57.55,11.2.62,16.81C371.69,554.82,372.13,556.22,374.89,555.4ZM108.62,244.58c-1.39-12.06-1.62-12.24-11.32-9.1a1.22,1.22,0,0,1-.35.05c-1.47,0-1.45,1-1.06,1.93,2.29,5.75,4.49,11.53,7,17.19,1.26,2.86,3.76.64,5.64.71s1.05-1.71,1-2.67C109.31,250,108.93,247.28,108.62,244.58ZM89.47,264.64c-.41-.48-.82-1-1.28-1.5-3.78-3.95-7.53-7.94-11.39-11.82-3-3-3-2.87-5.48.73-1.35,1.93-2.48,4-3.64,6-1,1.81-1.13,2.89,1.34,3.68,5.45,1.74,10.78,3.86,16.16,5.8C86.54,268,89.46,266,89.47,264.64Zm15.86,99.64c-3.13-3.61-5.88-6.93-8.79-10.1-6.15-6.71-7-6.74-14.48-1,4.05,4.36,8.07,8.75,12.2,13,.82.85,1.6,2.53,3.38,1.33C99.88,366,102.52,365.4,105.33,364.28ZM52.2,330.59c-.15-.52-.14-1-.35-1.17-6.38-6.26-13-12.16-22-14.48-1.84-.48-4-2.33-5.46-.35-1.29,1.79.95,3.58,1.73,5.32.27.59,1,1,1.45,1.49,4,4,9.1,6.06,14.4,7.54C45.26,329.87,48.52,331.35,52.2,330.59Zm80.63,184.76c4-5.27,7.86-10.47,11.86-15.56.9-1.15.71-1.87-.18-2.63s-1.35-2.56-3-1.68c-5.48,2.86-10.88,5.86-16.39,8.66-1.3.66-1.06,1.2-.48,2.08A34.08,34.08,0,0,0,132.83,515.35Zm26.77-349.88c-1.36-6.17-2.64-12.18-4-18.16-.32-1.35-1.06-2.33-2.79-1.36-2.62,1.47-5.5,2.37-8,4.09-1.7,1.15-2,1.86-.69,3.42,3.81,4.7,7.64,9.4,11.24,14.26,1.27,1.72,2.12.37,3.24.21C160.57,167.64,159.62,166.32,159.59,165.47ZM481,223.92c2.94-.33,5.87-.74,8.81-1,1.6-.13,2.14-.86,1.63-2.27-1.14-3.16-2.39-6.27-3.57-9.42-.45-1.21-1-1.67-2.29-.85q-7.41,4.68-14.93,9.2c-1.52.91-1.7,1.87-1.16,3.51s1.39,2.08,3.06,1.81C475.32,224.47,478.15,224.24,481,223.92ZM84.27,457.44c-9.34-4.27-18.91-6.53-29.12-4.25-1.17.26-2.8.08-3.08,1.78s1.11,2.22,2.09,3A8.11,8.11,0,0,0,56,459C65.69,463.22,75,460,84.27,457.44Zm175.93,100c.48-2.2-1-2.15-1.9-2.54s-1.58-1.07-2.34.25c-3.3,5.74-6.71,11.42-10,17.16-.45.79-.37,1.5.82,2.12,3.25,1.68,6.81,2.2,10.24,3.2,1.51.44,1.57-.41,1.66-1.72C259.11,569.63,259.71,563.32,260.21,557.48ZM141.67,466.91c2.09-1.08,2.26-3.58,3.6-5.19,1.73-2.07.64-2.65-1.22-3.2-3.24-1-6.45-2-9.7-3-7.82-2.19-7.73-2.11-11.56,5.08-1.22,2.28-.33,2.73,1.62,3.09,3.88.71,7.73,1.51,11.61,2.23C137.84,466.31,139.69,466.58,141.67,466.91Zm48.52,88.19c-2.69-.17-4.33,1.11-6.16,1.81a43.88,43.88,0,0,0-19.32,14.36c-.64.82-1.48,1.73-.87,2.82.51.92,1.59.83,2.55.77a15.58,15.58,0,0,0,7.32-1.78C180.85,568.81,185.53,562.32,190.19,555.1ZM113.58,234.56c.57,5,1.11,9.81,1.66,14.6.78,6.69.81,6.56,7.29,8,2.09.48,2.14-.15,2-1.8-.33-4.44-.75-8.89-.76-13.33,0-6.32-.16-6.65-6.48-7.26C116.15,234.7,115,234.65,113.58,234.56Zm233.87,316a5.34,5.34,0,0,0,.61-1c2.28-6.13,4.78-12.19,6.68-18.44.75-2.46-2.71-2.36-3.95-3.78-1-1.13-1.57.09-2.07.78-3.51,4.83-7,9.7-10.53,14.48-.9,1.21-.14,1.6.58,2.22a42.5,42.5,0,0,0,7.21,5C346.39,550.11,346.82,550.3,347.44,550.6Zm98.28-385.89c2.63,1,5,.55,7.4.79A43.34,43.34,0,0,0,476,161.57c1-.46,2.24-.94,2.19-2.44s-1.39-1.69-2.46-2.05a20.3,20.3,0,0,0-12.91-.39A62.3,62.3,0,0,0,445.72,164.71Zm47.51,270.87c-.76-2.57-1.69-5.1-2.23-7.72-.35-1.69-1-1.69-2.41-1.37-5,1.15-10,2.4-15.11,3.14-2.85.41-4,.81-2.7,4,.59,1.46,1,1.86,2.46,2.08,5.64.84,11.28,1.8,16.86,2.94C493,439.24,493.81,438.32,493.24,435.58ZM333.66,97.47c8.69-6.6,14.47-14.39,17.68-24.06.47-1.42.68-2.87-.39-4-1.31-1.34-2.49.21-3.37.77C337.78,76.44,336,86.69,333.66,97.47ZM486.83,462.76a6.56,6.56,0,0,0-1.07-.9c-5.66-3-11.34-6-17-9-1.6-.84-1.72.83-2.27,1.46s-1.92,1-.76,2.44c3.8,4.86,7.43,9.85,11.09,14.82.6.81.94,1.62,2.12.58,2.95-2.6,5-5.94,7.58-8.84A2.93,2.93,0,0,0,486.83,462.76ZM199.83,118c1.28-3.47,2.43-6.17,3.29-9,2.13-7,2.93-14.06,1.36-21.29-.23-1.07-.59-2.19-1.56-2.41a2.62,2.62,0,0,0-2.37,1.28,17.9,17.9,0,0,0-3.2,6.16C195.19,101.2,196.63,109.27,199.83,118Zm-75.38,63.43c0,1.59.77,2,2.19,2.26,5.38,1,10.74,2.15,16.1,3.3,1.09.23,2.89,1,2.83-.33s1.8-3.27-.45-4.72c-5.6-3.59-11.09-7.34-16.62-11-1-.66-1.52-.37-1.76.68C126,174.85,125.22,178.13,124.46,181.41Zm43.06,328.17h-.23c0-1,0-2.09,0-3.12s.39-2.57-1.22-2.34-3.71-.81-4.51,1.49c-2.07,5.95-4,11.95-6.12,17.88-.58,1.63-.09,2,1.4,2.24,3.17.47,6.27-.15,9.4-.37,1.55-.11,1.56-.94,1.53-2.09C167.63,518.71,167.59,514.15,167.52,509.59ZM288,138c.59,2.14,1.14,4.28,1.77,6.41.26.88.7,1.33,1.73.62,3.55-2.47,7.19-4.81,10.74-7.28,6.19-4.31,6.17-4.34,3-11.09,0-.1-.15-.18-.19-.29-.63-1.72-1.31-2.08-3-.72-4.15,3.41-8.52,6.53-12.73,9.86C288.67,136.1,287.49,136.68,288,138Zm-41.7-11.15c-.16-.31-.25-.52-.37-.72-3.27-5.64-6.56-11.27-9.8-16.92-.7-1.22-1.16-.58-1.85,0a37,37,0,0,0-6.06,7.29c-1.15,1.66-.69,2.53.79,3.65,4,3.05,8,6.29,12,9.41.78.61,1.7,2.16,2.43,1.53C244.68,130,245.4,128.29,246.32,126.88Zm25-28.64c-3.69-.88-7.34-.37-10.94-.59-2.44-.15-3,1-2.48,3.21,1.18,5.12,2.55,10.22,3.22,15.42.35,2.71,2,2.67,3.61,2.87,2.14.27,1.87-1.84,2.17-3C268.46,110.24,269.84,104.25,271.29,98.24Zm132.62,437.3a45.78,45.78,0,0,0,4.66-10.9c.39-1.26-.08-1.63-1.07-2-5.59-2.29-11.15-4.63-16.74-6.92a2.24,2.24,0,0,0-1.61-.2c-.92.52-.73,5.15.14,6ZM511.47,406.64c3.07,10.39,7.73,18.88,15.82,25.21,1,.8,2.08,2,3.35,1.35s1.43-2.29,1.13-3.74a18,18,0,0,0-.64-2.7C527.65,417.41,519.93,412.21,511.47,406.64ZM242.26,537.91c-.58.2-.8.27-1,.36-3.86,1.55-7.89,2.8-11.53,4.78-2.27,1.23-6.45.55-6.51,4,0,2.55,2,5.13,3.07,7.69,0,.11.14.19.19.3.65,1.35,1.51,1.61,2.75.65Q236.56,550,244,544.35c1.86-1.42.33-2.69-.13-4C243.47,539.42,243.19,538.29,242.26,537.91ZM64.42,287.68a60.36,60.36,0,0,0,2.77,7.42c.89,1.89,1.82,2.2,3.51,1.6,4.8-1.72,9.64-3.33,14.36-5.25.89-.36,3.46.18,2.51-2.26-.66-1.7-.81-3.76-3.76-3.72-5.93.08-11.87-.25-17.79-.62C63.73,284.7,64.18,285.92,64.42,287.68ZM181.28,169.8a17.26,17.26,0,0,0,1.15-1.88c1.52-3.27,3-6.57,4.48-9.85,4.1-8.94,4.1-8.94-5.55-11.7-.11,0-.19-.15-.3-.19-1.27-.5-1.75-.29-2,1.29-.84,6-1.94,11.92-2.89,17.89C176,166.88,179.61,170.15,181.28,169.8ZM512.09,275.68c8.13,5,16.57,8.87,26.39,8.6,1.67,0,3.8.44,4.48-1.19s-1.24-3-2.38-4.31a6.59,6.59,0,0,0-1.79-1.07C530.25,273,521.25,273.79,512.09,275.68ZM402.43,127c-.26-.25-.68-.63-1.07-1a39.07,39.07,0,0,0-7-5.72c-2-1.29-2.6-1.1-3.54.92q-3.51,7.58-7.41,15c-.69,1.32-1.15,2.17.43,3,1.09.59,1.64,2,3.42.56,4.45-3.72,9.21-7.07,13.78-10.66C401.6,128.66,402.63,128.35,402.43,127ZM442,515.1c-1.3,5.35-.8,10.27-.16,15.08a41.23,41.23,0,0,0,5.14,14.73c.51.9,1.23,1.9,2.45,1.73s1.62-1.31,1.92-2.3a17.11,17.11,0,0,0,.8-6.14C451.48,529.46,447.13,522.37,442,515.1Zm-341-317.72c-.77-10.17-3.8-19.38-11-26.84-.76-.79-1.48-2.16-2.87-1.63s-1.14,2.17-1.47,3.36a5.32,5.32,0,0,0,.11,1.75C86.65,184.46,93.66,191,100.91,197.38Zm406,140.25c-1.37-.32-2.23.19-2.33,1.68-.1,1.32-.68,2.5,1.25,3.4,5.28,2.44,10.4,5.23,15.59,7.87,1,.49,1.72.89,2.34-.74a53.93,53.93,0,0,0,2.48-10.53c.28-1.65-.6-1.71-1.82-1.7C518.6,337.63,512.76,337.62,506.93,337.63Zm-187,235a48.53,48.53,0,0,0-13.54,23.78c-.49,2.06-1.51,5.13.58,6.09s4.1-1.41,5.59-3.2C318.85,591.76,319.22,582.56,319.91,572.65ZM58.93,396c.39,4.82,1.29,5.55,5.94,4.28,4.35-1.18,8.65-2.58,13-3.9,1.3-.4,2.77-.52,2.52-2.63-.22-1.87-.66-3-2.84-3.19-3.69-.33-7.34-1-11-1.49C58.29,388,58.28,388,58.93,396Zm442.39-75.59L520,314.58c1.17-.37,1-1.19.52-1.9a47.18,47.18,0,0,0-6.13-7.6,2,2,0,0,0-3-.06c-4.18,3.32-8.39,6.61-12.44,10.09-.65.56-2.68,1.19-1.55,2.44S499.37,320.39,501.32,320.42ZM90.67,371.34c-.6-.6-1-1-1.4-1.41l-6.38-7c-6.5-7.12-6.69-7.12-13.1.09-.16.18-.29.37-.46.54-1,.94-1,1.73.26,2.48,5.12,3,10.22,6.12,15.34,9.16.82.49,1.68.88,2.5-.13C88.44,373.84,89.52,372.66,90.67,371.34ZM455.79,208.85a3.24,3.24,0,0,0,.7-.53q6.3-7.56,12.57-15.15c.73-.89.25-1.29-.67-1.74a51.68,51.68,0,0,0-9.22-3.16c-1.44-.41-1.9.15-2.28,1.32-1.6,5-3.28,10-4.84,15-.33,1.07-1.89,2.33-.42,3.31C452.71,208.58,454.29,208.53,455.79,208.85ZM282.87,574.31c3.16-2.23,6.46-3.75,9.07-6.33.82-.81,1.38-1.14.5-2.37-3.26-4.54-6.31-9.23-9.56-13.78-.5-.71-1.16-2.53-2.23-1.55s-3.68,1.6-3.1,3.76C279.34,560.66,280.39,567.45,282.87,574.31ZM118.25,480.94c6.11-1.07,12.28-.94,18.41-1.42,4-.31,2.56-3.52,3.08-5.44.57-2.11-1.82-1.42-2.84-1.65-4.84-1.13-9.78-1.89-14.61-3.05-1.87-.45-2.65.09-3.06,1.71A25.35,25.35,0,0,0,118.25,480.94Zm245.6-367.17c-2-.18-4,1-6.12,1.59-1,.27-1.93.61-1.47,2.44,1.43,5.69,2.44,11.5,3.59,17.26.15.75.28,1.48,1.27,1.12,2.2-.8,4.64-1,4.84-4.44.27-4.73,1.31-9.41,1.91-14.13C368.43,113.25,368.37,113.24,363.85,113.77ZM497,375.68a56.92,56.92,0,0,0,9.69-5c.65-.44.27-1-.17-1.45-4-4.56-7.84-9.26-12-13.68-2-2.14-3.76.57-5.64,1-1.28.31-1,.9-.54,1.78,2.62,5.33,5.17,10.69,7.75,16C496.42,375,496.43,375.87,497,375.68ZM94.43,413c-.26-1.13-4.25-2.87-5-2.32-5.24,3.71-10.42,7.52-15.69,11.19-1.23.86-1.39,1.3-.18,2.26a67.42,67.42,0,0,0,8.56,5.38c1,.59,1.46.16,2-.6q4.9-7.47,9.81-14.93C94.1,413.63,94.3,413.23,94.43,413ZM365,536.81c0,.27,0-.08,0-.43-.12-1.8-.22-3.39-2.73-3.6s-2.2,1.73-2.65,2.91c-1.92,5-3.6,10.12-5.53,15.13-.64,1.65-.62,2.36,1.27,3.05a40.33,40.33,0,0,0,7.81,1.65c2.18.34,2.85-.45,2.76-2.33C365.66,547.93,365.35,542.68,365,536.81ZM468.23,241.3a1.86,1.86,0,0,0-.55.32c-2.84,2.45-2.61,5.31.55,7.16,2.2,1.29,4.35,2.69,6.6,3.88,2.57,1.37,4.72,5,7.65,3.78,2.62-1.08,3.36-4.84,4.94-7.42,1.1-1.79.4-2.18-1.08-2.62-3.91-1.16-7.81-2.37-11.73-3.5C472.6,242.33,470.56,241.88,468.23,241.3ZM293,109.76c-3.86,5.24-7.65,10.29-11.35,15.41-1.85,2.57,1.12,3.48,2,5.07,1.12,2,2.06.29,2.92-.33a54.36,54.36,0,0,0,6.56-5.15c2.31-2.32,7.14-3.21,6.76-6.76-.34-3.17-3.92-5.53-6.38-8A2.48,2.48,0,0,0,293,109.76ZM451.78,482.94c2.81.47,3.82-.78,2.82-4-1.45-4.76-2.64-9.6-4-14.4-.23-.83.15-2.14-1.21-2.2a50.27,50.27,0,0,0-5.58.13c-.11,0-.23.83-.24,1.27-.09,4.18-.25,8.35-.21,12.53C443.48,483.83,443.53,483.83,451.78,482.94Zm-38.34-328.8c-1.11-.8,1.33-4.23-2-3.55-5.79,1.18-11.48,2.91-17.18,4.54-3.13.9-.92,3.63-1.46,5.43-.62,2.06,1.83,1.47,2.72,1.5,3.85.13,7.72-.06,11.58-.19C414.25,161.63,414.25,161.62,413.44,154.14Zm-324.52,84c-3.49,1.25-6,3.09-8.71,4.74-1.45.89-1.5,1.63-.22,2.91,4.45,4.43,8.85,8.93,13.09,13.57,1.52,1.67,2.28-.09,3.27-.36,1.17-.32,1.29-1.43.81-2.6-2.29-5.58-4.58-11.16-6.78-16.78C90,238.57,89.52,238,88.92,238.13Zm113.59-77.31c-1-2.89-3-3.88-4.39-5.37-1.95-2-2.83-.95-3.67.9-1.74,3.81-3.43,7.64-5.23,11.42-2.64,5.55-2.61,5.47,1.74,9.93,1.26,1.3,1.71,1.59,2.64-.24,2.57-5.08,5.33-10.05,8-15.1C201.89,161.68,202.59,161,202.51,160.82ZM63.1,275.88c-.14,1.86.29,2.52,2.46,2.71,5.33.45,10.63.48,16,.48,1.44,0,2.72.72,2.85-1.64.1-1.88,1.15-3.62-1.84-4.43-3.7-1-7.18-2.81-10.88-3.84-2.43-.67-5.22-3.47-7.2-1.59S63.44,273.09,63.1,275.88ZM137.78,155.6c-2.85,1.84-4.44,4.65-6.47,7-.81,1-1.19,2.07.24,3q8.49,5.43,17,10.89c.75-1.17,1.31-2.2,2-3.11.58-.74.77-1.12,0-2C146.23,166.19,142,160.89,137.78,155.6ZM384.72,526.24c-1.62.16-3.66,3.83-3,5.08,2.65,5,5.3,10.07,8,15.07.81,1.48,1.48,2.75,3.54.75,1.72-1.68,3.66-3.21,5.48-4.84,1.23-1.1,1.2-1.86.15-2.86q-6.18-6-12.39-11.91A13.67,13.67,0,0,0,384.72,526.24Zm-211.27-382c-3.31-1-6.8-.67-10.29-.54-2.11.08-2.27,1.1-1.87,2.75q2.14,8.86,4.22,17.74c.29,1.23.51,2.29,2.18,2.09s2.44-.43,2.69-2.41C171.22,157.34,172.4,150.84,173.46,144.26Zm66.45,426.52,10.5-18.29c.47-.82,1.63-1.48,0-2.49-1.23-.79-2.05-1.69-3.63-.4-4.79,3.9-9.68,7.67-14.61,11.39-1,.78-1.08,1.09-.28,2.11A50.12,50.12,0,0,0,239.91,570.78ZM473,360.06c2,4.51,3.84,9.14,6,13.61,3.25,6.71,1.88,5.19,8.56,4.72,3.09-.22,3.15-1.4,1.81-3.78-1.49-2.63-2.67-5.43-3.92-8.19-3.46-7.67-3.45-7.67-11.81-6.72C473.55,359.71,473.46,359.81,473,360.06Zm53.31-28.54c-.59-3.34-.34-6.5-1.62-9.54-.71-1.69-1.29-2.13-3-1.54-4.8,1.62-9.6,3.29-14.51,4.53-2.63.67-3.12,1.5-2.56,4.21.63,3,2.76,2.14,4.27,2.19C514.56,331.58,520.25,331.5,526.33,331.52ZM61.8,407.71c1.64,2.89,3,5.77,4.83,8.49,1.31,2,2.36,1.39,3.6.49,4.16-3,8.3-6,12.34-9.15.77-.6,3.38-.48,1.66-2.72-1.24-1.61-1.64-3.9-5-2.56C73.79,404.47,68,405.83,61.8,407.71ZM270.16,577.85c1.17-.13,2.34-.24,3.51-.4,2.29-.31,3.33-1.59,2.48-3.82-1.91-5-2.43-10.41-3.88-15.55-.36-1.26-.36-2.92-2.25-2.15-1.27.52-3.48-.75-3.6,2.44-.19,5-.91,9.89-1.05,14.87C265.22,578.43,265.16,578.43,270.16,577.85Zm-119.5-75.3c-.55,0-.78.47-1.15,1-2.24,3-4.5,6-6.83,9-5.76,7.31-5.59,7.68,3.34,10.87,2.24.8,2.8.11,3.41-1.78,1.53-4.78,3.19-9.52,4.88-14.24A3.47,3.47,0,0,0,150.66,502.55ZM255.09,117.7c-.75-3.55-1.48-6.75-2.09-10-1.83-9.51-2.2-9.65-10.53-4.67-1.51.9-1.82,1.75-1,3.23,2.9,4.91,5.75,9.84,8.63,14.76.37.64.53,1.67,1.7,1C253.64,121,256.33,120.52,255.09,117.7Zm228.1,85.79c-.19-.19-.6-.57-1-1q-2.32-2.57-4.63-5.15c-1.38-1.55-2.46-1.62-3.88.2-3.31,4.23-6.89,8.26-10.27,12.45-.55.68-2.64,1.38-.8,2.61,1.28.86,2.16,3.2,4.39,1.83q7.57-4.66,15.12-9.38C482.61,204.78,483.31,204.66,483.18,203.5Zm-195.1-97.7a8.61,8.61,0,0,0-1.49-1.4c-1.92-1.1-3.91-2.1-5.85-3.16-2.6-1.43-3.93-1.11-4.52,2.24a134.32,134.32,0,0,1-3.64,14.89c-.55,1.87-.24,2.67,1.41,3.53s2.6.39,3.43-1a91.74,91.74,0,0,1,6.69-9.1C285.53,110,286.69,107.92,288.08,105.8ZM492.79,445.75a9,9,0,0,0-1.81-.68q-8.41-1.43-16.84-2.76c-.88-.14-2.29-1.1-2.18.9.09,1.51-2.11,3.25.31,4.52,5.26,2.77,10.56,5.46,15.81,8.25.82.44,1.53.91,2-.17A37.29,37.29,0,0,0,492.79,445.75ZM376.17,134.82c1.38,0,1.52-1.18,1.9-1.92,1.66-3.22,3.3-6.45,4.75-9.77,1-2.4,4.26-4.95,2.57-7.15-1.41-1.84-5.15-1.64-7.83-2.39s-3,.65-3.24,2.5q-1,7.26-2,14.53C371.93,133.62,373.43,135.19,376.17,134.82ZM519.93,357c-.19-.21-.36-.56-.63-.7-5.84-2.88-11.67-5.81-17.57-8.57-1.67-.78-2,1.18-2.84,2s0,1.32.54,2c3.13,3.44,6.16,7,9.3,10.41,4.14,4.54,4.16,4.49,8.22-.27A16.87,16.87,0,0,0,519.93,357ZM139.58,488c.06-1.95-.58-2.75-3-2.6-5.51.34-11,1.28-16.45,1.65-1.89.12-2.47.83-2,2.59.72,2.57,1.48,5.14,2.11,7.73.37,1.51,1,2,2.45,1.16,5.3-2.87,10.6-5.72,16-8.43C139.7,489.55,140.3,489.28,139.58,488ZM456.5,462.57c.49,2.29.85,4.37,1.39,6.4s1.46,4.16,1.93,6.29c1.51,6.78,2.21,7.14,8.44,3.89,1-.54,2-1.22,3-1.67,1.22-.52,1.29-1.24.59-2.18-3.7-5-7.48-9.85-11.07-14.87-1.06-1.49-2.06-.51-2.91-.24C456.9,460.52,455.75,461.27,456.5,462.57Zm-373.74-81A8.88,8.88,0,0,0,81.27,380c-5-3-10.07-5.86-15-9-1.51-.95-2,0-2.38.84a46.81,46.81,0,0,0-3.34,8c-.44,1.67.11,2.07,1.46,2.27,5.85.85,11.72,1.57,17.54,2.57C82.51,385.31,81.74,382.87,82.76,381.55ZM393.5,149.25c3.55-1.11,7.17-2,10.61-3.4,2.49-1,6.63.26,7.19-3.14.43-2.65-2.05-5.29-3.28-7.93-.87-1.87-1.79-2-3.44-.72-4.38,3.49-8.89,6.82-13.33,10.24-1.1.84-1.62,1.75-.82,3.27S392,149.55,393.5,149.25ZM439,203.08c.38,5,.38,5,1.23,5.07,2.51.13,4.1-.62,4.91-3.42,1.49-5.14,3.47-10.14,5.33-15.17.71-1.92,0-2.68-1.83-2.59-2.55.13-5.09.51-7.65.57-1.76,0-2.23.87-2.2,2.4C438.93,194.7,439,199.46,439,203.08ZM124.7,189.71a84,84,0,0,0,1.5,9.91c.47,2.17,1.37,2.35,3.12,2.06,4.86-.79,9.73-1.46,14.58-2.28,1-.16,2.7.51,2.62-1.44-.07-1.7.15-3.67-2.27-4.17C137.85,192.47,131.47,191.12,124.7,189.71Zm353.46,72.67c-5.39-4-11.07-7.15-16.6-10.54-.7-.43-1.07-.52-1.77.08-1.83,1.58-3.79,3-5.92,4.66,4.21,2.66,8.09,5.28,12.12,7.62C472.43,268,472.47,267.88,478.16,262.38ZM297.57,561.88c2.37-2.19,3.88-4.83,5.51-7.37,1.23-1.91.89-3.3-1.15-4.61-3.75-2.41-7.31-5.12-11-7.68-1.07-.75-2-2.41-3.55-.79-1.32,1.42-2.22,2.88-.72,4.94C290.39,551.43,293.9,556.62,297.57,561.88ZM138.93,206.25l0,.16c-1.39.16-2.79.28-4.17.48s-2.78.47-4.17.75c-.63.13-1.45,0-1.58,1-.32,2.5,3.42,7.23,5.79,7a130.89,130.89,0,0,0,16.11-2.16c1.23-.26,1.55-.64,1.06-1.87-2.65-6.57-2.62-6.58-9.89-5.72ZM475.1,230.47c-1.14.13-1.61.15-2.06.24-1.27.26-2.74-.06-2.79,2.18,0,1.88.28,2.56,2.23,3.06,5.41,1.38,10.72,3.11,16.06,4.74,1,.3,1.94.65,2.18-.74.51-2.95,1.45-5.81,1.37-8.87,0-1.69-.54-2.17-2.29-2C484.7,229.75,479.59,230.61,475.1,230.47ZM508,299.86c-2.72-2.44-5.85-3.49-8.6-5.16-1.12-.68-2-.83-2.87.61-2.92,4.9-6,9.71-9,14.56-.35.56-1.16,1.37-.23,1.71,1.73.64,3.42,2.17,5.51.45C497.74,308,502.75,304,508,299.86ZM410.22,517c0-3.57,0-6.69,0-9.81,0-2.07-.74-2.78-2.9-2.81-5-.07-9.93-.47-14.9-.73-1-.05-2.46-.58-2.54.9s-1,3.36,1.19,4.29ZM90.53,296.2c-5.48,1.94-11.27,4-17.06,6-.46.16-.85.25-.95.82-.2,1.25,6.61,8.85,7.77,8.5a6.54,6.54,0,0,0,1.93-1.43c3.67-3,7.36-6,11-9.12.78-.67,2.48-1.09,1.58-2.6S92.87,295.68,90.53,296.2ZM436.86,481.68c.84-5.39-.15-10.81.73-16,.77-4.53-1.6-5.44-4.9-6.64-2.56-.93-2.7.25-2.82,2.07-.33,4.85-.8,9.67-.7,14.56.06,3.21,1.07,4.8,4.2,5.18A31.1,31.1,0,0,1,436.86,481.68ZM426.58,213.44c1.28-.88,2.06-1.76,3-2,3.08-.71,3.51-2.59,3.31-5.43-.31-4.41,0-8.85-.16-13.27,0-1.06.42-2.54-.9-3.15-2.56-1.18-7.6,2.38-7.32,5.21C425.08,200.81,425.82,206.8,426.58,213.44ZM309.47,539.76c.22-1.53-.65-1.74-1.15-2.09-4.79-3.36-9.63-6.65-14.44-10a1.63,1.63,0,0,0-1.95-.17c-.8.55-1.09,6.94-.33,7.48q7,5,14.16,9.9c.41.28,1.13,1.37,1.65.22C308.27,543.2,308.93,541.19,309.47,539.76ZM491.1,291.67a3.64,3.64,0,0,0-1-.72c-2-.58-4-1.16-6.1-1.62-.89-.2-1.47.3-1.86,1.21-2.37,5.46-4.81,10.89-7.19,16.35-.18.41-.9.8-.19,1.45,1.26,1.16,5.93.61,6.85-.88q4.27-6.86,8.51-13.74A22.11,22.11,0,0,0,491.1,291.67ZM467.63,424.38c4.68-1,9.38-1.79,14-2.94,2-.49,5.19.88,5.59-1.72.27-1.71-1.91-3.81-3-5.73-.11-.2-.36-.31-.49-.5-1.17-1.74-2.33-2.1-4.28-.76-4.24,2.9-8.71,5.46-13,8.26-.44.28-2.39-.15-1.17,1.54C465.88,423.4,466,424.93,467.63,424.38Zm-369.9,9.93c2.06.56,2.2-.67,2.48-1.86,1.28-5.32,2.49-10.66,4-15.93.51-1.79-.4-1.71-1.5-2.1-1.87-.65-2.28,1-2.91,1.87-2.24,3.25-4.3,6.63-6.45,10-4.56,7.05-4.52,7.14,4,8A1.27,1.27,0,0,1,97.73,434.32ZM176.2,500.1c-1.15,1.12-3.22,1-3,3.41.4,4.19,0,8.47.64,12.6.35,2.27-1.37,5.83,1.32,6.57,2,.55,4.72-1.43,7-2.61,1.44-.74,1.6-1.64,1.12-2.83C181,511.54,178.59,505.85,176.2,500.1Zm173.89-381c-3.14.61-5,2.92-7.38,4.35-1.51.9-1.52,1.79-.45,3.31,2.9,4.11,5.47,8.44,8.31,12.59.54.78.58,2.76,2.17,2,1.33-.61,2.06-1.74,1.56-3.69C352.71,131.58,351.46,125.33,350.09,119.15Zm-109,19.18c-.61-.63-1.13-1.26-1.73-1.78-3-2.59-6-5.2-9.08-7.72-6.62-5.42-7.36-5.08-8.81,3.6-.22,1.34-.23,2,1.36,2.47,5.31,1.71,10.56,3.61,15.77,5.62C241.2,141.51,240.27,139.19,241.11,138.33ZM91.44,320.11c.36-.38.74-.81,1.16-1.21,3.83-3.65,6.87-8,10.17-12.08.49-.62,2.11-1.37.72-2.5-1.09-.88-2.1-1.78-3.82-.24-3.78,3.41-8,6.36-11.87,9.67-.77.65-3,1.16-1.83,2.64A9.56,9.56,0,0,0,91.44,320.11ZM460.29,417c1.37-.74,2.73-1.41,4-2.19,3.68-2.25,7.38-4.49,11-6.9.72-.48,3.05-.63,1.55-2.4-1.12-1.32-2-3.76-4.72-2-4.51,2.84-9.18,5.44-13.71,8.26-.86.54-2.76.9-2.19,2.13C456.9,415.41,458.58,416.39,460.29,417ZM239.22,151.2c.36-3.64.36-3.67-2.9-4.81-4.52-1.58-9-3.22-13.6-4.62-.82-.25-2.45-2.33-2.87.12-.35,2-1.85,4.87,1.31,5.95C227,149.82,233.2,150.07,239.22,151.2Zm-50,364.36c5.7-2.75,5.76-2.85,3-8.08-2-3.81-4.07-7.59-6.14-11.36-.48-.87-.39-3-2.08-1.76-.94.67-2.92,1.23-1.74,3.77C184.91,503.79,187,509.73,189.23,515.56ZM347.55,146.42c-.31-.42-.61-.77-.86-1.16-3-4.63-5.85-9.3-8.91-13.86-.48-.72-1.06-2.74-2.53-1.24-1,1-2.91,1.91-1.53,4.07,3,4.71,5.82,9.53,8.84,14.23.45.7.63,2.57,2,1.76A8,8,0,0,0,347.55,146.42Zm41.27,346c-.58.49-2.38-.89-1.77,1,.51,1.61.37,4,3,4.09,5.45.22,10.91.39,16.37.47.81,0,2.8,1.28,2.33-1-.3-1.48.64-4.11-2.49-4.16C400.42,492.74,394.6,492.53,388.83,492.38ZM105.58,454.43c-.41-2.21-1.57-3.79-4-3.59-2,.17-3.07,1.64-3,3.67.13,2.78,2.46,3.52,4.42,3.5A2.88,2.88,0,0,0,105.58,454.43Zm395.68-58.9c-.57-2.44-1.31-4.33-3.63-4-2.47.37-3.43,2.31-2.93,4.68a3.18,3.18,0,0,0,3.78,2.74A3.07,3.07,0,0,0,501.26,395.52Zm-68-224.42A4.36,4.36,0,0,0,429,168c-2.1.07-3.35,1.56-3.12,3.81s2.15,3.12,4,3.12C432,175,432.9,173.16,433.25,171.11ZM326.74,554.76c-1-1.87-2-3.43-4.34-3-2.11.39-3.37,1.74-3.18,3.85a3.21,3.21,0,0,0,3.57,3.17C324.75,558.45,326,556.58,326.74,554.76Zm113-55.87c-.35-3.21-2.16-3.46-3.74-3.26-2.3.28-3.41,1.92-3.24,4.24a3.19,3.19,0,0,0,4.07,2.83A4.18,4.18,0,0,0,439.76,498.89ZM111.4,208.82c-2.61.26-3.49,1.65-3.31,3.89s1.52,3.36,3.48,3.22c2.39-.18,3.3-2.26,3.12-4.27C114.53,210,113.63,208.12,111.4,208.82Zm90.65-69.69c2.54-.67,3.66-2.42,3.39-4.49a2.93,2.93,0,0,0-3.9-2.52,3.73,3.73,0,0,0-3,4.13C198.75,138.54,200.52,138.84,202.05,139.13ZM495.56,276.78a3.15,3.15,0,0,0,2.65-3.1c.09-2.14-2.43-4.22-4.43-4-2.28.25-2.6,2.23-2.45,3.65C491.54,275.4,493.1,276.74,495.56,276.78ZM201.78,539.89c-1.1.85-2.81,1.29-2.66,3.68.18,2.9,2.34,3.06,4.2,3.14a2.83,2.83,0,0,0,2.87-3.27C206,541.31,204.45,540,201.78,539.89ZM65,337.82c0,2.29,1.32,3.75,3.34,3.64a3.25,3.25,0,0,0,3-3.93c-.29-1.95-1.46-3.51-3.76-3.22C65.59,334.56,64.25,335.53,65,337.82ZM327.05,109.33c-2.66.43-4.47,1.26-4.14,3.55a3.25,3.25,0,0,0,4,2.89,3.6,3.6,0,0,0,3.31-3.82A2.65,2.65,0,0,0,327.05,109.33Z"/><path class="cls-1" d="M28,507.76c-4.87,1.25-10.33-3.29-10.48-8.61-.15-5.55,3.47-10.64,8.8-11.24a10.19,10.19,0,0,1,11,8.58C38,502.34,34,507.13,28,507.76Zm2.86-9.44c-.55-2.39-1.85-3.81-4.2-3.61a3.15,3.15,0,0,0-3,3.29c.17,2.49,2.22,3.48,4.49,3.57S30.15,499.44,30.84,498.32Z"/><path class="cls-1" d="M348.68,639.3c1,5.46-2.67,10.22-8.24,11-5.33.72-10.52-3.61-11.15-8.92-.68-5.76,3-10.6,8.52-11.23S348.05,633.43,348.68,639.3Zm-9.6-2.28c-2.48.17-3.43,1.58-3.34,3.72s1.79,3,3.58,2.87a3.47,3.47,0,0,0,3.33-4C342.51,637.45,340.93,636.79,339.09,637Z"/><path class="cls-1" d="M169.95,643.77a5.12,5.12,0,0,1-4.36,5.41,5.38,5.38,0,0,1-5.36-4.48c-.21-2.41,2-5.34,4.25-5.6A5.33,5.33,0,0,1,169.95,643.77Z"/><path class="cls-1" d="M341.91,657.67a5.33,5.33,0,0,1,5.93,4.23,4.83,4.83,0,0,1-3.94,5.67,4.94,4.94,0,0,1-5.49-4.45C338,660.09,339.37,658,341.91,657.67Z"/><path class="cls-1" d="M319.18,5.57A5,5,0,0,1,322.93.09a4.56,4.56,0,0,1,5.57,4c.45,2.75-1.26,5.62-3.56,6A5.41,5.41,0,0,1,319.18,5.57Z"/><path class="cls-1" d="M7.73,513.9c-3.12.17-5-1.42-5.12-4.39s1.81-5,5-5.18a4.75,4.75,0,0,1,4.89,4.46A5.11,5.11,0,0,1,7.73,513.9Z"/><path class="cls-1" d="M399.8,407.38c2.14,5.09,4.93,9.68,6.1,15,1.85,8.34,2.18,16.78,2.11,25.26,0,6.12.41,12.13,2.66,17.92.68,1.75,1.8,3.73-.1,5.59-1.63,1.6-3.45,1-5.28.66-8.85-1.61-17.83-1.91-26.76-2.68-11.09-1-22.09-2.27-31.81-8.41-.89-.56-1.74-1.19-2.59-1.82s-1.3-1.4-2.59-1.27c-1.07,13.47-7.6,24.7-14.73,35.78-3.64,5.67-6.84,11.69-8,18.54-.81,4.72-3.42,5.62-7.05,2.23-5.52-5.16-11.85-9.22-17.89-13.65-6.56-4.8-13.09-9.57-18.73-15.46a51.8,51.8,0,0,1-8.71-12.78,111.91,111.91,0,0,1-6.95,10.18c-4.29,5.3-9.74,9-15.8,11.83-6.74,3.2-13.75,5.89-19.81,10.39a12.49,12.49,0,0,0-2.71,2.24,3.55,3.55,0,0,1-4,1.55c-1.6-.41-2-1.93-2.28-3.31-1.33-7.28-5.19-13.41-8.84-19.62-4.13-7-8.31-14-10-22.18a40,40,0,0,1,.14-16.74,5.5,5.5,0,0,0,.33-2.36c-9.17,2.74-18.13,1.47-27.1-1.08-8.3-2.36-16.27-5.81-24.79-7.51-2.88-.58-5.75-.85-8.65-1.2-2.59-.31-4-2.81-2.66-4.86,4.68-7,6.09-15.08,7.76-23.06,1.79-8.59,3.38-17.2,8.34-24.71a53.73,53.73,0,0,1,7.28-8.63c-6.08-1.31-11.7-2.69-16.81-5.54-7.46-4.15-12.63-10.73-18.15-16.94-4-4.53-8.43-8.46-14.53-9.91a2.86,2.86,0,0,1-2.29-2.73c-.32-2,.84-3,2.27-4,6.38-4.25,11-10.21,15.45-16.28,4.16-5.7,8.7-10.94,14.55-15a39.34,39.34,0,0,1,21.9-7,60.36,60.36,0,0,1-8.11-18c-1.52-5.51-2-11.12-2.58-16.71-.93-8.51-1.58-17-5.84-24.75a3.44,3.44,0,0,1,.27-3.68,3.24,3.24,0,0,1,3.75-1.31c10.54,3.74,20.82.84,31.23-.88,8-1.32,16.08-2.78,24.12-.2,2,.65,2.38-.1,1.95-1.79-3.56-14,2.66-25.75,8.53-37.6,2.3-4.65,4-9.44,3.65-14.78-.2-3.3,2.28-5.52,5-4.17,9.28,4.55,19.59,5.07,29.31,7.84a42.61,42.61,0,0,1,21,13.4c.81.93,1.35,2.28,2.81,2.43C278,185.32,285,177.5,293.81,171.16c6.07-4.35,12.45-8.28,18.06-13.25,1.49-1.32,2.76-2.89,4.13-4.35,2.87-3.05,5.17-2.68,6.78,1.16,4,9.5,9.6,18.12,14.72,27,4.21,7.3,7.8,14.91,8.79,23.43a53.71,53.71,0,0,1,0,5.68,47.46,47.46,0,0,1,25.38-8.74c5.29-.31,10.6-.24,15.88-.85a27.8,27.8,0,0,0,12-3.76c3.51-2.21,6-1,5.44,2.71-1.37,9.13.67,18,2,26.82,2,12.91.43,24.85-6.73,35.9-.1.15,0,.4-.06.9a45.39,45.39,0,0,1,23,2.45c6.4,2.3,12,6.17,18,9.36,5.14,2.75,10.4,5.22,16.35,5.77,2.89.27,3.79,2.93,1.69,5.8-4.52,6.17-8,13-11.71,19.57a67.07,67.07,0,0,1-21,23c-1.63,1.1-3.73,1.44-5.2,3.31,14.24,5.31,21.65,16.61,27.06,29.82,2.88,7,6.32,13.81,12.21,19a3.3,3.3,0,0,1-1.21,5.84c-8.44,2.56-15.91,7.13-23.56,11.3-10.59,5.77-21.68,9.29-33.92,8.1A11.54,11.54,0,0,0,399.8,407.38ZM151.4,239.68c.63,2.15,1.35,4.2,1.83,6.3,1.8,7.8,2.25,15.79,3.42,23.67,1.48,10,4.38,19.41,12.11,26.55a3.38,3.38,0,0,1,1,4.11,3.71,3.71,0,0,1-4.33,2.11,24.2,24.2,0,0,0-5.86-.41c-11.88.74-21.36,5.88-28.77,15.26-4.81,6.09-9.12,12.64-15,17.81-1.31,1.15-.75,1.55.4,2.25a50.54,50.54,0,0,1,13.21,12c9.28,11.56,21.07,17.86,36.06,17.65,1.91,0,3.88-.44,4.59,2s-1.07,3.88-2.79,4.72c-10.71,5.25-14.94,15-17.87,25.56-2.55,9.2-3.54,18.82-7.6,27.61-.35.76-.7,1.51.66,1.76,11.53,2,22.12,7.31,33.5,9.88,8.75,2,17.22,1.17,25.11-3.27,1.6-.9,2.92-1.72,4.37-.27s1.2,3,.34,4.57a38.4,38.4,0,0,0-2.94,7.11c-2.64,8.78-.16,16.76,3.54,24.53,4.29,9,10.09,17.28,13.36,26.81.46,1.34,1.32.91,2.17.33,5.22-3.6,11.15-5.82,16.83-8.51,11.56-5.45,19.82-13.91,24.12-26.06.72-2,1.54-4.05,4.12-4.15,3-.11,3.1,2.47,3.63,4.38,2.26,8.17,7.29,14.5,13.21,20.24,8.88,8.61,19.94,14.32,29.55,22.51,2.33-7,5.81-13,9.44-19,7.5-12.41,15.5-24.78,11.07-40.5-.55-2,.86-3.08,2.39-3.85,1.78-.9,2.82.37,3.81,1.56a61,61,0,0,0,4.93,5.89c8,7.37,17.76,10.51,28.32,11.53,8.82.85,17.69,1.19,26.48,2.3,3.61.46,3.21-.75,2.75-3.24a86.26,86.26,0,0,1-1-17.65c.37-14.86-3.36-28.42-12.92-40-1.43-1.73-2.07-3.26-.74-5s3.07-1.46,5.07-.7c9.49,3.59,18.92,3.41,28.57,0,10.41-3.66,19.53-10,29.86-13.74,1.35-.49,1.29-1.24.58-2.12-4.73-5.78-7.41-12.67-10.59-19.3a64.08,64.08,0,0,0-7.23-12c-5.79-7.38-13.09-12.28-22.58-13.6-1.81-.25-3.88-.61-3.9-3.21,0-2.36,1.64-3.13,3.53-3.75a38.86,38.86,0,0,0,4.23-1.67,57.16,57.16,0,0,0,26.68-25c3.08-5.6,6.35-11.1,9.58-16.73l-2-.64c-8.53-2.72-15.73-8.15-23.83-11.77-10.62-4.74-21.44-6.65-32.75-2.75-1.8.62-3.58,1.71-4.91-.51s-.07-3.82,1.39-5.27c11.36-11.35,13.49-25.21,10.81-40.28a144.92,144.92,0,0,1-2.2-18.24c-.11-2.24-.57-2.28-2.24-1.91a105.41,105.41,0,0,1-15.78,1.81c-14.4,1-28.4,3.11-37.53,16.36-1.08,1.56-2.75,1.51-4.42.76-2-.89-1.34-2.38-1-3.9.48-2.41,1.83-4.49,2.2-7,1.53-10.42-2-19.53-7-28.23-4.68-8.18-10.11-15.93-14.35-24.78-7.34,6.86-16,11.75-23.6,18.1-3.57,3-7,6-9.68,10a34.77,34.77,0,0,0-5.7,16.31c-.12,1.26-.26,2.59-1.94,3a3.61,3.61,0,0,1-4.11-1.26c-1-1.31-1.82-2.72-2.73-4.08A39.34,39.34,0,0,0,252,187.54c-9.56-3.85-20-4.12-29.64-7.89-.77,6.7-3.67,12.2-6.35,17.78-6,12.45-9.57,25-2.56,38.36.78,1.47.87,3.12-.58,4.17a3.64,3.64,0,0,1-4.5.32c-7.51-4.48-15.68-5.54-24.31-4.51s-17.21,3.26-26,3.65C155.87,239.52,153.63,238.76,151.4,239.68Z"/><path class="cls-1" d="M247.88,414.5c-5.3,2.49-10.66,4.48-16.72,4.18-12.67-.63-27.67-11-20.76-29,.24-.61.84-1.16.24-2.33-5.12,3.3-10.18,6.52-15.19,9.83-1.55,1-.72,2.68-.44,3.92,1.21,5.46-2.88,13.49-9.3,15.63-5.85,1.95-14-.76-16.94-5.64-3.15-5.19-2.38-13,1.67-17,5.37-5.22,12.82-6.46,18.44-2.69,1.73,1.16,2.78,1.09,4.31,0,2.59-1.81,5.31-3.41,7.93-5.18s5-3.5,7.92-5.59c-13.3-1.16-22.41-7.42-23.85-20.81-1-9.46,5.13-15.8,13-20.69-5.25-1.11-10.53-.54-15.75-.73-1.17,0-2.34,0-3.51,0-2.3-.14-3.87.49-5,2.83-3.1,6.42-10.67,9.7-16.71,7.56a14.54,14.54,0,0,1-9.72-16.56c1-5.33,6.76-10.58,12.52-11.24,7.1-.82,11.86,3.07,14.79,8.95.84,1.68,1.4,2.19,3.27,2.14,5.12-.14,10.24.07,15.36.12,1.12,0,2.24-.07,4-.13-9.51-7.81-13.29-17.31-9.55-28.46,3.94-11.77,14.26-13.86,25.82-14.07-6.37-4-12.16-7.57-17.86-11.27-1.29-.84-1.87-.35-3,.35-4.58,2.87-9.58,4-14.73,1.8-5.37-2.25-8.9-9.18-7.81-14.68,1.49-7.51,6.31-11.67,13.4-12.37A13.45,13.45,0,0,1,198,268.86c-.34,2.07.11,3.21,2.15,4.3,5,2.67,9.37,6.31,15,8.95-1.95-10.54-.62-19.88,7.26-27.14,8.24-7.59,17.38-7.68,27.69-1.76-3-6.46-5.51-12-8.09-17.58-.59-1.28-1.75-.89-2.8-.82-7.09.44-13.8-4.52-15-11.06s3.53-14.7,9.72-16.47c7.86-2.25,14.7.87,17.5,8.17A13.66,13.66,0,0,1,249,229.95c-1.32,1.55-1.26,2.54-.45,4.17,2.85,5.73,5.55,11.54,8.33,17.31.08.16.4.21.8.4,1.29-3.2,2.27-6.49,4-9.52,5-8.87,14.34-13,24.05-10.3,4.4,1.2,8.86,5.54,11.75,11.48,1.27-.87,1.13-2.29,1.35-3.51.29-1.61.22-3.3.62-4.88,1.1-4.32,1.88-7.71-2.92-11.28-5.68-4.23-6-10.13-3.21-16.36,2.13-4.72,8.68-8.63,14.49-7.95,6.36.74,11.53,5.15,12.28,12.7.68,6.87-3.75,13.65-10.18,14.88-2.24.43-2.82,1.28-3.09,3.29-.7,5.14-1.63,10.25-2.62,16.36,7.64-9.35,16.19-14.22,27.29-10,10.75,4.13,14.47,12.31,13.84,28.44,3.54-4.12,6.83-8,10.16-11.8,1.06-1.22.14-2.15-.27-3.21-4-10.16,1.22-19.7,11.4-20.88,8.53-1,14.68,4.5,15.42,13.74.57,7.09-5.92,14-13.42,14.28-1.16,0-2.54.3-3.46-.2-3.69-2-5.37.26-7.24,2.85-1.68,2.33-3.71,4.4-6.25,7.36,11.65-2.72,20.55-.26,26.07,10,5,9.31,3.24,17.94-2.94,26.07,1.84,0,13.07-3.36,14.48-4.12,1.23-.66,1-1.63,1.1-2.68.77-5.71,3.44-10.28,8.95-12.47a13.79,13.79,0,0,1,14.36,2.31c4.81,3.85,6.1,9,4.43,14.77A13.28,13.28,0,0,1,407.24,311c-5.5,1-10.25-.19-13.84-4.68-1.21-1.5-2.59-.82-3.82-.43-4.31,1.37-8.56,2.89-13.31,4.52,9.09,4.74,15.08,11.09,15.5,21.71s-4.42,17.49-14.57,21.65c5.15,1.32,9.61,2.35,14,3.63,2,.59,3.22.06,4.5-1.57a14.7,14.7,0,0,1,17.72-4.19c5,2.45,8.31,9.65,7.12,15.58a14.7,14.7,0,0,1-14.47,11.47A13.91,13.91,0,0,1,392.71,367c-.37-2.31-1.22-3.09-3.4-3.41s-4.5-1.24-6.77-1.81-4.48-1-7.74-1.73c7.08,10,7.36,19.59.36,28.89s-16.76,10.74-28.44,8.1l14.71,16.63c.62.7,1.12.58,2.05.22,6.45-2.51,13.52-.44,17,4.78s3,13.11-1,17.27c-5.37,5.56-12.09,6.66-18.44,3-5.78-3.31-8.39-11.73-5.21-17.58,1-1.9.82-3-.61-4.49-3.44-3.62-6.68-7.44-10.13-11.32-5.7,26.58-23.32,33.77-43.86,17.86.69,6.06,1.44,11.88,2,17.71.21,2.24,1.91,2,3.24,2.48,6.73,2.18,10.58,7.66,10.16,14.49s-7.59,13.48-14.19,13.3c-8-.22-14.81-6.65-14.38-14.14.28-4.78,2.28-9.11,6.72-11.64,2.06-1.17,2.7-2.52,2.24-4.83-.81-4.1-.52-8.41-2.31-12.74-5.24,9-12.06,14.4-22.91,13.33s-16.43-7.67-20-18c-2.11,4.94-3.9,9.16-5.73,13.36-.51,1.16.52,1.35,1,1.87,5.61,5.68,5.7,15.1.18,20.49-5.76,5.62-16.07,5.52-21.05-.75-5.7-7.16-4.1-20.18,7.46-22.54,5.36-1.09,7.68-3.3,9.2-7.83s4.3-8.46,5.34-13.15c.34-.13.59-.39.27-.66S248,414.18,247.88,414.5ZM220.1,342.2c3.68,36.09,37.52,63.51,75.21,59.32,37.84-4.21,62.94-39.18,58.7-75.07-4.36-36.86-39.2-62.57-75.23-58.71S216,306.48,220.1,342.2ZM334.3,277.72c1.24-3.35,2.35-6.54,3.61-9.67,1.35-3.35,1.39-6.87,1.28-10.35-.19-5.65-2.08-10.52-7.44-13.29-6.32-3.26-12.43-3.6-18.25,1.32-4.85,4.11-7.7,9.45-10.15,15.16-.68,1.59-.35,2.11,1.06,2.43A79.3,79.3,0,0,1,334.3,277.72ZM259.22,403.37c-.06,1.45.33,2.89-.22,3.73-3,4.56-1.69,9.38-.71,13.94,1.4,6.45,4.39,12,11.65,13.74,6.79,1.66,14.32-1.92,17.72-7.12,3.53-5.41,4.24-11.5,4.79-17.65.13-1.45-1-1.48-2.18-1.52-2.11-.07-4.15.4-6.31.25A79.13,79.13,0,0,1,259.22,403.37Zm97.06-130.44c-6.35.18-10.89,4.21-15.71,7.7-1.59,1.15-.87,2.18.1,3.14a62.1,62.1,0,0,1,15.41,24.31c.46,1.34.74,1.08,1.86.65,4.13-1.59,7.4-4.39,10.55-7.29,5.47-5,7.33-13.66,4.09-19.64S364,271.27,356.28,272.93ZM215.14,399.47a9,9,0,0,0,2.56,6c9.56,10,25.78,9.39,33.66-3.86,1-1.6,0-2.18-1.22-3-6.88-4.31-13.34-9.11-18.61-15.39-5.55-6.62-5.69-6.67-10.88.33C217.19,388.26,214.81,393.44,215.14,399.47Zm123,3.6a22.84,22.84,0,0,0-3.58-9.39c-1-1.53-1.4-1.67-2.79-.53-8.93,7.33-19.3,11.6-30.51,14-1.77.37-2.11.76-1.2,2.49a40.13,40.13,0,0,0,8.38,11.06c5,4.57,11.4,6.87,18.1,3.69C334.33,420.69,339.4,411.56,338.18,403.08Zm46.9-71.37c-1.12-13.3-14.75-17.72-23.21-16.55-2,.27-3.26,1-2.69,3.58a77.7,77.7,0,0,1,.63,27.69c-.29,2,.46,2.35,2.25,2.49a32.81,32.81,0,0,0,11.54-.76C382.28,345.74,386.61,340.12,385.08,331.71Zm-12,39.09c-.67-4.16-4.54-8.87-9.77-12.51-4.95-3.44-5-3.31-7.24,2.26-.17.43-.43.83-.61,1.26-3.61,8.6-8.1,16.63-14.86,23.22-.87.85-1.16,1.38.39,2.25a41.51,41.51,0,0,0,14.25,4.56C366.63,393.61,374.51,383.09,373,370.79ZM223.55,297.72c-6-1.49-11.86-2.45-17.85-1.54-9,1.36-14.09,8.71-12.48,17.41,1.8,9.76,10.24,16.52,19.81,18.74A77.94,77.94,0,0,1,223.55,297.72Zm-9.92,46.55a8.94,8.94,0,0,1-.18-1.76c.27-3-1.15-3-3.4-2.12a44.43,44.43,0,0,0-13.34,7.52c-5.72,4.93-6.73,10.91-2.89,17.32,5.73,9.56,19.48,11.08,27.63,6.89,1.92-1,.68-1.63.18-2.63A76.93,76.93,0,0,1,213.63,344.27ZM221.07,277a21.68,21.68,0,0,0,5,12.1c1.4,1.65,2.49,1.85,3.93-.21,4.89-7,11.39-12.29,18.37-17.09,2.17-1.49,6.28-1.47,6.22-4.57,0-2.6-3.25-4.41-5.31-6.19-6.77-5.84-14.17-8-20.33-3.37C222.46,262.46,220,269,221.07,277Zm57.61-39.35c-1.1.51-2.38.28-3.63.87-7.84,3.7-13.71,15.4-12.1,24.22.37,2,1.2,1.71,2.68,1.28a72.14,72.14,0,0,1,26.67-2.66c2.9.26,2.93-.62,2.64-2.66a44.3,44.3,0,0,0-4.26-14.35C288.13,239.37,283.67,236.91,278.68,237.61ZM295,457.26c.6,5.4,3.61,8,8.56,7.45,4.37-.51,6.86-3.64,6.35-8-.56-4.74-4.14-7.9-8.43-7.45A7,7,0,0,0,295,457.26Zm-56.34-.46c3.46-.45,6.55-4.58,6.14-8.21-.47-4.2-5-7.83-9.18-7.31-3.74.48-6.7,4.95-6.09,9.19C230.09,454.1,234.73,457.32,238.69,456.8ZM369.28,250.89a7.33,7.33,0,0,0,6.36-8.12c-.43-4.15-4.73-7.67-8.8-7.2a7.76,7.76,0,0,0-6.55,8.42A8.43,8.43,0,0,0,369.28,250.89ZM169,334.12a7.71,7.71,0,0,0-15.33,1.61c.55,4.05,4.78,7.66,8.54,7.27S169.42,338.15,169,334.12Zm15.92-59.25a7.79,7.79,0,0,0,7.07-7.94c-.26-3.77-5-7.87-8.72-7.61s-7.23,4.9-6.82,8.84C176.82,271.88,181,275.21,184.89,274.86Zm52.72-61.79a7.36,7.36,0,0,0-7,7.7c0,4.1,5.69,8.34,9.61,7.64,3.42-.61,6.38-4.71,6-8.35C245.8,216.1,241.47,212.57,237.61,213.07Zm76,.21a7.56,7.56,0,0,0-8.27-7.17c-4.44.35-7.48,3.78-7,7.95.43,4,4.7,7.55,8.87,7.34C310.77,221.21,313.92,217.24,313.6,213.28Zm92.16,143.54a7.26,7.26,0,0,0-6.41,8.39,7.69,7.69,0,0,0,8,7c4-.34,7.5-4.81,7-8.91C414,359.62,409.66,356.38,405.76,356.81Zm-223.66,54c4.41-.53,7.18-3.66,6.44-7.94-.69-4-3.88-7.72-9-7.18-3.86.4-6.59,4.79-6,8.09C174.23,407.93,176.72,411.81,182.1,410.81Zm185.75,8.76c-4.44.48-7.18,3.64-6.73,7.74.5,4.46,4.48,7.82,8.67,7.31,3.71-.45,7.17-4.64,6.73-8.18A8,8,0,0,0,367.86,419.57Zm38-114.74c4.14-.48,6.58-3.81,6.08-8.28-.53-4.71-3.8-7.29-8.51-6.72-4.28.51-6.83,3.55-6.43,7.66C397.48,302.34,401.14,305.38,405.88,304.83Z"/><path class="cls-1" d="M278.33,283.43c29.86-2.89,54.63,15.46,58.27,45.36,3.53,29-17.2,55.71-46.08,58.67-29.88,3.06-54.66-15.51-58-45.37C229.15,312.86,248,287.23,278.33,283.43ZM288.56,353c8,.22,14.25-10.34,13.84-17-.46-7.56-10.06-15.62-18.47-14.82-7.59.72-14.21,9.19-13.33,17A16.41,16.41,0,0,0,288.56,353Zm-26.67-21.13c3.84.43,2.79-2.38,3.84-3.51,1.21-1.31-.1-1.72-.92-2.26-6.25-4.12-12.55-8.15-18.7-12.41-1.63-1.13-2.19-.19-2.66.8a51.73,51.73,0,0,0-4.78,15.32c-.21,1.46.12,2.17,1.82,2C247.95,331.12,255.4,332.08,261.89,331.86ZM267,349c-1.33.57-1.77.72-2.18.94-6.07,3.19-12.11,6.43-18.22,9.55-1.89,1-.3,1.75.09,2.3a53.33,53.33,0,0,0,10.65,10.66c1.53,1.21,2.33,1,3.34-.49,2.56-3.78,5.27-7.46,7.82-11.24,3.59-5.34,3.57-5.37-.85-10.34A5.26,5.26,0,0,1,267,349Zm-18.75-41.82c1,.67,2.13,1.35,3.19,2,5.86,3.8,11.8,7.47,17.52,11.47,2,1.4,2.41-.42,3.4-1,1.18-.7,1.19-1.59.46-2.93-3.5-6.43-6.92-12.9-10.13-19.47-.91-1.87-1.64-2.26-3.22-1C255.36,299.56,251,302.59,248.26,307.22Zm30.37-17.91c-2.92.69-5.73,1.43-8.56,2-2.26.45-2.43,1.44-1.4,3.34,3.42,6.31,6.69,12.72,10.1,19,.48.88.53,2.44,2.32,2.1s1.76-1.39,2-2.79q1.17-8.58,2.63-17.12c1.09-6.39,1.14-6.38-5.07-6.39C279.9,289.49,279.2,289.37,278.63,289.31Zm-40,52a78.2,78.2,0,0,0,2.78,11.18c.69,2,1.61,2.15,3.34,1.2,5.89-3.25,11.75-6.58,17.81-9.47,2.44-1.16,1.63-2.49,1.57-4.28-.09-2.58-2-1.71-3-1.75-6.62-.23-13.26-.19-19.88-.38C238.72,337.74,237.88,338.69,238.65,341.3ZM293.09,316a5.18,5.18,0,0,0,.89-.71q7.34-8.54,14.65-17.1c.86-1,.56-1.53-.55-2.11a68,68,0,0,0-12.53-5.28c-1.47-.43-2.62-.8-2.9,1.77-.75,6.9-2,13.75-3.11,20.61C289,316.13,291.52,315.27,293.09,316Zm17,58.23c4.74-3.92,9.42-7.52,12.41-12.86.78-1.39,1.21-1.94-.68-2.67-5.53-2.15-11-4.55-16.44-6.84-2.3-1-2.94,1.36-4.35,2.19-1.69,1-.49,2-.1,2.76C303.89,362.44,306.91,368.08,310.14,374.19Zm16.38-57.43c-6.1,3.37-12.07,6.76-18.13,10-1.57.83-1.77,2-1,3.08.87,1.23-.16,3.77,2.83,3.67,5.81-.2,11.64-.19,17.44.06,2.82.12,3.18-1,2.77-3.31C329.61,325.64,329.21,321,326.51,316.76Zm-61.75,60.11c4.86,2.49,10,3.63,15.34,4.44,1.3.2,2,.18,2-1.42,0-6.15.13-12.3.19-18.45,0-.93.54-2.36-1.17-2.23-1.46.11-3-1.82-4.41.32C272.78,365.33,268.77,371.05,264.76,376.87Zm26.38,4.33c3.51-.89,7-1.7,10.51-2.69,2-.56,2.62-1.6,1.38-3.75a111.31,111.31,0,0,1-7.45-14.23c-1.42-3.54-3.37-1.46-5.16-1.32-2.28.18-1.76,2-1.78,3.46-.07,5.37-.1,10.73-.28,16.09C288.28,380.93,288.87,381.89,291.15,381.2Zm23-80.23a9.94,9.94,0,0,0-.91.93c-4.11,5.46-8.69,10.51-13.29,15.55a1.68,1.68,0,0,0-.51,1.18c.34,1.6,4.83,3.35,6.35,2.51,3.36-1.87,6.78-3.64,10-5.69,2.47-1.57,7-1.76,6.92-5-.11-2.92-3.6-5.22-5.87-7.57a13.18,13.18,0,0,0-1.65-1.33A10.4,10.4,0,0,0,314.16,301Zm-4.22,38.79c-1.45.11-1.51.37-2.37,4-.42,1.77.74,2.08,1.71,2.5,5.23,2.27,10.5,4.46,15.76,6.65,1.19.5,1.9.43,2.56-1.12,1.39-3.27,1.91-6.7,2.64-10.11.29-1.35-.1-1.86-1.6-1.85C322.83,339.89,317,339.8,309.95,339.76Z"/></g></g></svg>