<svg xmlns="http://www.w3.org/2000/svg" viewBox="0 0 12.94 27.5"><defs><style>.cls-1{opacity:0.46;}.cls-2{fill:#3a3134;}</style></defs><title>attatch</title><g id="Layer_2" data-name="Layer 2"><g id="Layer_14" data-name="Layer 14"><g class="cls-1"><path class="cls-2" d="M6.47,0A6.48,6.48,0,0,0,0,6.47V21a6.47,6.47,0,0,0,12.94,0V6.47A6.48,6.48,0,0,0,6.47,0Zm3.77,22.28a3.77,3.77,0,0,1-7.55,0V11.69a3.77,3.77,0,1,1,7.55,0ZM11.86,21a5.34,5.34,0,0,1-.81,2.84,4.68,4.68,0,0,0,.27-1.59V11.69a4.85,4.85,0,1,0-9.71,0V22.28a4.68,4.68,0,0,0,.27,1.59A5.34,5.34,0,0,1,1.08,21V6.47a5.39,5.39,0,0,1,10.79,0Z"/></g></g></g></svg>