<svg xmlns="http://www.w3.org/2000/svg" viewBox="0 0 42 42"><defs><style>.cls-1{fill:#fcfcfc;}</style></defs><title>edit</title><g id="Layer_2" data-name="Layer 2"><g id="Layer_15" data-name="Layer 15"><path class="cls-1" d="M21,0A21,21,0,1,0,42,21,21,21,0,0,0,21,0Zm7,17.53q-6.91,6.86-13.78,13.76c-.08.08-.15.19-.24.24-1.71.83-3.57,1.23-5.22,1.89-.66,0-.81-.27-.65-.71.94-2.47,1.46-5,3.62-7,4.19-3.85,8.11-8,12.11-12,.56-.57.86-.6,1.39,0,.86,1,1.79,1.86,2.73,2.74C28.39,16.8,28.45,17,28,17.53Zm5.46-5.46c-1.25,1.26-2.48,2.54-3.77,3.87-1.27-1.29-2.42-2.49-3.61-3.65-.34-.33-.39-.51,0-.87,1.13-1.07,2.21-2.18,3.29-3.29.38-.39.68-.52,1.12-.06,1,1,2,2,3,3C33.8,11.41,33.81,11.69,33.43,12.07Z"/></g></g></svg>