<svg xmlns="http://www.w3.org/2000/svg" viewBox="0 0 22.39 22.39"><defs><style>.cls-1{fill:#f7aa35;}</style></defs><title>facebook</title><g id="Layer_2" data-name="Layer 2"><g id="Layer_15" data-name="Layer 15"><path class="cls-1" d="M17.94,2.24a1.74,1.74,0,0,0,.36.28.32.32,0,0,0,.14.12l.32.28a.32.32,0,0,0,.14.13l.32.32a.32.32,0,0,0,.13.14l.29.32a.56.56,0,0,0,.17.19l.24.31a.3.3,0,0,0,.12.14l.31.44,0,.06.29.45a.23.23,0,0,0,.08.14l.27.5s0,.07,0,.09l.21.45.07.14.2.5.07.19.16.5.05.18.13.5.05.23.1.55,0,.22a12.57,12.57,0,0,1-.05,3.47.52.52,0,0,0,0,.27L22,14.3a.94.94,0,0,0-.09.32l-.42,1.1a1.76,1.76,0,0,0-.19.41,15.85,15.85,0,0,1-1.06,1.74,12.48,12.48,0,0,1-2.3,2.31,16,16,0,0,1-1.74,1.08l-.45.2-1.06.41-.36.11-.87.21-.32.06-.78.11h-.26a13.12,13.12,0,0,1-2.39-.06.43.43,0,0,0-.23,0l-.59-.1a.24.24,0,0,0-.18,0L8.12,22c0-.05-.12,0-.18-.06l-.51-.16a.17.17,0,0,0-.14,0l-.5-.2-.09,0-.55-.26L6,21.13l-.46-.24a.23.23,0,0,0-.14-.08L5,20.54l-.14-.09-.37-.26a.22.22,0,0,0-.13-.1L4,19.79a.2.2,0,0,0-.12-.1l-.34-.31-.18-.17-.28-.29a.59.59,0,0,0-.18-.18l-.28-.32-.13-.15a1.74,1.74,0,0,0-.28-.36.48.48,0,0,0-.14-.19l-.27-.39s0-.06,0-.07l-.28-.46a.24.24,0,0,0-.08-.14l-.24-.45A.35.35,0,0,0,1.08,16a2.29,2.29,0,0,0-.22-.48l0-.11-.19-.5a.15.15,0,0,0,0-.14l-.15-.5a.54.54,0,0,0-.07-.23l-.11-.5,0-.23A11.75,11.75,0,0,1,.2,9a.86.86,0,0,0,.05-.29L.52,7.8a1.29,1.29,0,0,0,.11-.35l.5-1.19a2.08,2.08,0,0,0,.23-.45A14.38,14.38,0,0,1,2.59,4,11.38,11.38,0,0,1,5.64,1.48l.15-.1.49-.24L7.43.64A1.16,1.16,0,0,0,7.8.52L8.71.27,9,.21A12.35,12.35,0,0,1,11.65,0c.56,0,1.12.11,1.67.18a.41.41,0,0,0,.23,0,2.72,2.72,0,0,0,.55.13.25.25,0,0,0,.18.05l.44.14s.1,0,.15.05l.59.22a.35.35,0,0,0,.19.08,1.72,1.72,0,0,0,.41.18.14.14,0,0,0,.11.06l.52.28.07,0,.44.26.19.12.36.24A.51.51,0,0,0,17.94,2.24ZM6.8,10.42v1.69c0,.06,0,.13,0,.19a.22.22,0,0,0,.14.19.92.92,0,0,0,.46,0H9.17l0,.14a3.26,3.26,0,0,0,0,.68.38.38,0,0,0,0,.23,3.26,3.26,0,0,0,0,.68.26.26,0,0,0,0,.18v.05a3.44,3.44,0,0,0,0,.68.56.56,0,0,0,0,.28,3.3,3.3,0,0,0,0,.63.28.28,0,0,0,0,.18v.05a3.35,3.35,0,0,0,0,.68.28.28,0,0,0,0,.18v.05a3.35,3.35,0,0,0,0,.68.28.28,0,0,0,0,.18v.05a3.35,3.35,0,0,0,0,.68.38.38,0,0,0,0,.23c0,.3.12.38.52.35h2c.78,0,.85,0,.79-.77a.32.32,0,0,0,0-.27,2,2,0,0,0,0-.64.32.32,0,0,0,0-.27,2,2,0,0,0,0-.64.32.32,0,0,0,0-.27,2,2,0,0,0,0-.64.49.49,0,0,0,0-.28,3.15,3.15,0,0,0,0-.64.32.32,0,0,0,0-.27,2,2,0,0,0,0-.64.32.32,0,0,0,0-.27,2,2,0,0,0,0-.64.32.32,0,0,0,0-.27c.07-.11,0-.26.06-.34s.24,0,.36,0h1.83c.44,0,.54-.08.51-.5a3.89,3.89,0,0,0,0-.69.43.43,0,0,0,0-.23,3.88,3.88,0,0,0,0-.69.43.43,0,0,0,0-.23,2.87,2.87,0,0,0,0-.68.16.16,0,0,0-.1-.15c-.24-.16-.51-.06-.76-.07H12.52V8.59a.44.44,0,0,0,0-.23,4.05,4.05,0,0,0,0-.69l0-.27a.79.79,0,0,1,.75-.74l.28,0h.69a.48.48,0,0,0,.23,0H15a.3.3,0,0,0,.31-.25,2.06,2.06,0,0,0,0-.63V3.93a.26.26,0,0,0-.12-.27c-.2-.16-.42-.07-.64-.08H12.82a.52.52,0,0,0-.28,0,2.48,2.48,0,0,0-.82.15,1.43,1.43,0,0,0-.42.15A3.17,3.17,0,0,0,9.53,5.71a.88.88,0,0,0-.13.37,2.75,2.75,0,0,0-.18.87v.28a2.33,2.33,0,0,0,0,.64A.24.24,0,0,0,9.2,8v0a3,3,0,0,0,0,.68A.39.39,0,0,0,9.2,9c0,.18,0,.32-.26.28H7.11a.29.29,0,0,0-.31.31v.82Z"/><path class="cls-1" d="M9.2,8h.06a.06.06,0,0,1-.06,0V8Z"/><path class="cls-1" d="M6.8,11.33h.08a.08.08,0,0,1-.08,0Z"/><path class="cls-1" d="M6.8,10.42h.08a.08.08,0,0,1-.08,0Z"/></g></g></svg>