<svg xmlns="http://www.w3.org/2000/svg" viewBox="0 0 34.23 34.23"><defs><style>.cls-1{fill:#fff;}</style></defs><title>images</title><g id="Layer_2" data-name="Layer 2"><g id="Layer_15" data-name="Layer 15"><path class="cls-1" d="M17.12,13a4.15,4.15,0,1,0,4.15,4.14A4.15,4.15,0,0,0,17.12,13Zm0,7.11a3,3,0,1,1,3-3A3,3,0,0,1,17.12,20.08Z"/><path class="cls-1" d="M17.12,15.34a1.78,1.78,0,1,0,1.78,1.79A1.78,1.78,0,0,0,17.12,15.34Z"/><path class="cls-1" d="M10,10.2c.13,0,.26,0,.39,0h.47c.1,0,.14,0,.14-.13,0-.27,0-.54,0-.81S10.91,9,10.74,9H10a.21.21,0,0,0-.24.24c0,.26,0,.51,0,.77S9.85,10.22,10,10.2Z"/><path class="cls-1" d="M17.12,0A17.12,17.12,0,1,0,34.23,17.12,17.12,17.12,0,0,0,17.12,0ZM27.19,23.06a2.18,2.18,0,0,1-2.31,1.76H9.2a2.17,2.17,0,0,1-2.09-1.51c0-.1,0-.22-.1-.31V12s0,0,0-.06A2.16,2.16,0,0,1,8.53,10.3c.1,0,.09-.1.09-.17,0-.32,0-.65,0-1a1.37,1.37,0,0,1,1.09-1.3,5.22,5.22,0,0,1,1.08,0A1.37,1.37,0,0,1,12.18,9.2c0,.28,0,.57,0,.85,0,.12,0,.16.15.16s.45,0,.67,0a.15.15,0,0,0,.18-.13c.11-.34.22-.69.34-1a1.76,1.76,0,0,1,1.69-1.21H19A1.76,1.76,0,0,1,20.71,9c.11.32.22.65.32,1a.23.23,0,0,0,.27.2c1.25,0,2.5,0,3.75,0a2.12,2.12,0,0,1,2,1.27c.09.19.12.4.2.59V23S27.2,23,27.19,23.06Z"/><path class="cls-1" d="M25,11.39H20.76a.61.61,0,0,1-.67-.48l-.47-1.42A.6.6,0,0,0,19,9H15.27a.6.6,0,0,0-.64.47l-.47,1.4a.62.62,0,0,1-.7.5H9.28a1,1,0,0,0-1.1,1.1q0,5,0,10A1,1,0,0,0,9.3,23.64H24.94A1,1,0,0,0,26,22.54q0-5,0-10.07A1,1,0,0,0,25,11.39ZM11.18,13.76H10a.59.59,0,1,1,0-1.18h1.16a.59.59,0,1,1,0,1.18Zm5.93,8.69a5.33,5.33,0,1,1,5.34-5.34A5.34,5.34,0,0,1,17.11,22.45Zm7.11-8.69a.59.59,0,1,1,.6-.58A.6.6,0,0,1,24.22,13.76Z"/></g></g></svg>