<svg xmlns="http://www.w3.org/2000/svg" viewBox="0 0 22.91 22.91"><defs><style>.cls-1{fill:#f7aa35;}</style></defs><title>instagram</title><g id="Layer_2" data-name="Layer 2"><g id="Layer_15" data-name="Layer 15"><path class="cls-1" d="M11.46,22.91A11.46,11.46,0,1,1,22.91,11.46,11.46,11.46,0,0,1,11.46,22.91Zm0-4.55h2a9.57,9.57,0,0,0,1.84-.15,3.61,3.61,0,0,0,2.92-2.93,9.63,9.63,0,0,0,.14-1.85q0-2,0-4a9.35,9.35,0,0,0-.14-1.86A3.6,3.6,0,0,0,16.63,5.2a4.29,4.29,0,0,0-2.07-.63c-.59,0-1.18-.05-1.78-.05-1.48,0-3,0-4.45.06A4.41,4.41,0,0,0,6.7,5a3.54,3.54,0,0,0-2,2.44,7,7,0,0,0-.18,1.66c0,1.84-.06,3.68,0,5.52A4.24,4.24,0,0,0,5,16.32a3.57,3.57,0,0,0,2.56,1.9,9.41,9.41,0,0,0,1.84.15Z"/><path class="cls-1" d="M5.76,11.44c0-1,0-1.93,0-2.89A3.77,3.77,0,0,1,6,7.35,2.32,2.32,0,0,1,7.76,5.91,6.27,6.27,0,0,1,9,5.78c1.22,0,2.45,0,3.67,0,.64,0,1.28,0,1.92.06a2.87,2.87,0,0,1,1.45.49A2.43,2.43,0,0,1,17,8a14.35,14.35,0,0,1,.1,2.09c0,1.22,0,2.44,0,3.66A6.25,6.25,0,0,1,17,15.22,2.35,2.35,0,0,1,15,17a6.27,6.27,0,0,1-1.09.1q-2.47.06-4.94,0a5.22,5.22,0,0,1-1.38-.17A2.33,2.33,0,0,1,5.88,15,11.51,11.51,0,0,1,5.76,13C5.75,12.46,5.76,12,5.76,11.44Zm5.69-3.55A3.56,3.56,0,1,0,15,11.47,3.55,3.55,0,0,0,11.45,7.89Zm3.69.69a.83.83,0,1,0-.83-.82A.83.83,0,0,0,15.14,8.58Z"/><path class="cls-1" d="M11.44,9.13a2.32,2.32,0,1,1-2.32,2.32A2.32,2.32,0,0,1,11.44,9.13Z"/></g></g></svg>