<svg xmlns="http://www.w3.org/2000/svg" viewBox="0 0 22.2 35.18"><defs><style>.cls-1{fill:#802c6e;stroke:#802c6e;stroke-miterlimit:10;stroke-width:1.5px;}</style></defs><title>location</title><g id="Layer_2" data-name="Layer 2"><g id="AT1"><path class="cls-1" d="M11.29,33.53l-9.4-18a9.88,9.88,0,0,1,.39-9.89A10.32,10.32,0,0,1,11.1.75h0a10.33,10.33,0,0,1,8.77,4.77,9.89,9.89,0,0,1,.51,9.81ZM11.1,1.41A9.64,9.64,0,0,0,2.86,5.94a9.23,9.23,0,0,0-.37,9.25L11.28,32l8.5-17a9.24,9.24,0,0,0-.48-9.17A9.65,9.65,0,0,0,11.1,1.41Zm0,15.26a5.1,5.1,0,0,1-5.15-5,5.15,5.15,0,0,1,10.29,0A5.1,5.1,0,0,1,11.08,16.67Zm0-9.42a4.38,4.38,0,1,0,4.47,4.38A4.43,4.43,0,0,0,11.08,7.25Z"/></g></g></svg>