<svg xmlns="http://www.w3.org/2000/svg" viewBox="0 0 22.91 22.91"><defs><style>.cls-1{fill:#f7aa35;}</style></defs><title>mail</title><g id="Layer_2" data-name="Layer 2"><g id="Layer_15" data-name="Layer 15"><path class="cls-1" d="M14,12.78c-.13-.13-.18-.07-.27,0l-1.4,1.46a.78.78,0,0,1-1.32,0L9.63,12.83c-.09-.09-.15-.2-.3,0L6.4,15.85H16.86s0-.07,0-.08Z"/><path class="cls-1" d="M8.15,11.28c-.93-.95-1.85-1.92-2.81-2.92v6.29c1-1,1.87-2,2.8-2.9C8.31,11.56,8.34,11.47,8.15,11.28Z"/><path class="cls-1" d="M11.53,12.51c.17.17.23,0,.32-.05L16.71,7.4c.07-.07.17-.13.19-.27H6.42s0,.07,0,.08Z"/><path class="cls-1" d="M15.13,11.67c.6.62,1.19,1.25,1.79,1.86.35.35.73.68,1.08,1V8.35c-1,1-1.95,2-2.91,3C15,11.51,15,11.57,15.13,11.67Z"/><path class="cls-1" d="M11.46,0A11.46,11.46,0,1,0,22.91,11.46,11.46,11.46,0,0,0,11.46,0Zm8.18,15.38c-.1,0-.07.11-.09.17a2.38,2.38,0,0,1-2.47,1.89H6.15a2.36,2.36,0,0,1-2.4-2.05.78.78,0,0,0,0-.1q0-3.73,0-7.45c0-.08.06-.19-.07-.25V7.52c.11,0,.09-.13.11-.2A2.37,2.37,0,0,1,6.19,5.54h11a2.36,2.36,0,0,1,2.38,2.11q0,3.76,0,7.52c0,.06,0,.12.07.14Z"/></g></g></svg>