<svg xmlns="http://www.w3.org/2000/svg" viewBox="0 0 22.77 22.8"><defs><style>.cls-1{fill:#f7aa35;}</style></defs><title>phone</title><g id="Layer_2" data-name="Layer 2"><g id="Layer_15" data-name="Layer 15"><path class="cls-1" d="M11.55,22.78v0H11v0Z"/><path class="cls-1" d="M11.55,22.78H11a10.86,10.86,0,0,1-4.46-1.07A11.46,11.46,0,0,1,.26,13.9,11.46,11.46,0,0,1,0,10.78,11.09,11.09,0,0,1,.93,6.85,11.44,11.44,0,0,1,8.83.29,11.91,11.91,0,0,1,10.53,0a11.38,11.38,0,0,1,2,0,10.78,10.78,0,0,1,4.53,1.45,11.19,11.19,0,0,1,5.06,6.12,11.16,11.16,0,0,1,.57,2.47,12.4,12.4,0,0,1,.05,1.74,10.66,10.66,0,0,1-1.19,4.64,11.26,11.26,0,0,1-7.14,5.87,9.84,9.84,0,0,1-2.79.4ZM5.94,7.66a9,9,0,0,0,.56,3.17A14.52,14.52,0,0,0,9.44,15.7,10.13,10.13,0,0,0,12,17.77a4.58,4.58,0,0,0,2.38.66,3.08,3.08,0,0,0,2.17-1,.84.84,0,0,0,.12-1.17,5.28,5.28,0,0,0-1.21-1.36,1.5,1.5,0,0,0-1.07-.37,2,2,0,0,0-.91.35c-.29.18-.53.42-.8.63s-.2.24-.52,0A8.93,8.93,0,0,1,10.51,14a16.1,16.1,0,0,1-2-3.24A4.6,4.6,0,0,1,8,9.48a.75.75,0,0,1,.37-.86l.31-.18a4.53,4.53,0,0,0,1.13-.76A.45.45,0,0,0,10,7.29a4.72,4.72,0,0,0-.59-2,2.83,2.83,0,0,0-.34-.51,1.11,1.11,0,0,0-1.64-.12,4.07,4.07,0,0,0-.54.54A3.39,3.39,0,0,0,5.94,7.66Z"/></g></g></svg>