<svg xmlns="http://www.w3.org/2000/svg" viewBox="0 0 33.42 33.42"><defs><style>.cls-1{fill:#fff;}</style></defs><title>review</title><g id="Layer_2" data-name="Layer 2"><g id="Layer_15" data-name="Layer 15"><path class="cls-1" d="M25.11,16.56c-.18-.21-.29-.19-.48,0-1.15,1.17-2.29,2.36-3.49,3.48a7.84,7.84,0,0,0-1.4,2.33,6.85,6.85,0,0,0,2.53-1.55c.9-1,1.89-1.88,2.83-2.82.24-.23.64-.48.64-.71S25.32,16.81,25.11,16.56Z"/><path class="cls-1" d="M21.89,22.67c-1,.45-2,.9-2.93,1.36-.29.14-.56.21-.82,0a.64.64,0,0,1-.05-.81q.69-1.46,1.37-2.92a1.79,1.79,0,0,1,.38-.53c.85-.84,1.69-1.69,2.54-2.53a.73.73,0,0,0,.24-.57c0-2.36,0-4.73,0-7.09,0-.68-.16-.84-.84-.84H11c-.7,0-.86.16-.86.85q0,7.86,0,15.72c0,.68.17.84.83.84H22.05a.52.52,0,0,0,.54-.51c0-1.14,0-2.27,0-3.48A3.17,3.17,0,0,1,21.89,22.67ZM12,11.28a2.05,2.05,0,0,1,.31,0h8.12a2,2,0,0,1,.35,0,.54.54,0,0,1,.49.55.54.54,0,0,1-.5.58,2.09,2.09,0,0,1-.35,0H12.36a2.12,2.12,0,0,1-.35,0,.58.58,0,0,1,0-1.14Zm-.5,3.52a.56.56,0,0,1,.6-.44h6.69a.58.58,0,0,1,.62.59.59.59,0,0,1-.65.57H12.18C11.7,15.51,11.42,15.19,11.53,14.79Zm5.35,3.81H12.22c-.45,0-.71-.22-.72-.57s.26-.59.7-.59H16.9c.44,0,.71.24.7.59S17.32,18.6,16.87,18.6Z"/><path class="cls-1" d="M28.69,14.59c-.26-.35-.45-.33-.75,0-.69.75-.71.73,0,1.45.13.13.23.28.36.43l.38-.35c.24-.24.66-.48.68-.74S28.9,14.87,28.69,14.59Z"/><path class="cls-1" d="M16.71,0A16.71,16.71,0,1,0,33.42,16.71,16.71,16.71,0,0,0,16.71,0ZM27.87,16.9,24,20.71a.72.72,0,0,0-.24.57q0,2.08,0,4.16a1.7,1.7,0,0,1-1.27,1.76s-.05,0-.08.07H10.31A2.33,2.33,0,0,1,9,26V8.84a2.16,2.16,0,0,1,1.39-1.31h12a2,2,0,0,1,1.36,2.22c0,1.86,0,3.73,0,5.59,0,.12,0,.25.06.38l.28-.26c.56-.56,1.12-1.13,1.69-1.69a1.1,1.1,0,0,1,1.54-.08,6.25,6.25,0,0,1,1.4,1.55v.69A7.3,7.3,0,0,1,27.87,16.9Z"/></g></g></svg>