<svg xmlns="http://www.w3.org/2000/svg" viewBox="0 0 34.06 32.98"><defs><style>.cls-1{fill:#802c6e;stroke:#802c6e;stroke-miterlimit:10;stroke-width:1.5px;}</style></defs><title>vendor</title><g id="Layer_2" data-name="Layer 2"><g id="AT1"><polygon class="cls-1" points="1.87 12.57 1.19 12.57 1.38 12.18 1.87 11.2 1.87 12.57"/><polygon class="cls-1" points="32.9 12.57 32.23 12.57 32.23 11.09 32.9 12.57"/><path class="cls-1" d="M5.47,16.64a4.12,4.12,0,0,1-4.12-4.12c0-.08,0-.15,0-.23l0-.24H9.56l0,.24c0,.08,0,.15,0,.23A4.12,4.12,0,0,1,5.47,16.64Zm-3.6-4.07a3.6,3.6,0,0,0,7.21,0Z"/><path class="cls-1" d="M13.19,16.64a4.12,4.12,0,0,1-4.12-4.12c0-.08,0-.15,0-.23l0-.24h8.19l0,.24c0,.08,0,.15,0,.23A4.12,4.12,0,0,1,13.19,16.64Zm-3.6-4.07a3.6,3.6,0,0,0,7.21,0Z"/><path class="cls-1" d="M32.75,12.57H1.35v-.34L7.63.82,27.17.75l5.58,11.48ZM2,12.05h30L26.84,1.27,7.94,1.33Z"/><path class="cls-1" d="M20.91,16.64a4.12,4.12,0,0,1-4.12-4.12c0-.08,0-.15,0-.23l0-.24H25l0,.24c0,.08,0,.15,0,.23A4.12,4.12,0,0,1,20.91,16.64Zm-3.6-4.07a3.6,3.6,0,0,0,7.21,0Z"/><path class="cls-1" d="M28.63,16.64a4.12,4.12,0,0,1-4.12-4.12c0-.08,0-.15,0-.23l0-.24h8.19l0,.24c0,.08,0,.15,0,.23A4.12,4.12,0,0,1,28.63,16.64ZM25,12.57a3.6,3.6,0,0,0,7.21,0Z"/><path class="cls-1" d="M31.33,32.23H2.9v-8H31.33ZM3.41,31.71h27.4v-7H3.41Z"/><rect class="cls-1" x="4.19" y="16.33" width="0.52" height="8.14"/><rect class="cls-1" x="29.14" y="16.33" width="0.52" height="8.14"/><rect class="cls-1" x="5.14" y="6.5" width="11.56" height="0.52" transform="translate(1.4 15.38) rotate(-73.9)"/><rect class="cls-1" x="16.6" y="1.2" width="0.52" height="11.13" transform="translate(-0.3 0.79) rotate(-2.66)"/><rect class="cls-1" x="22.93" y="0.99" width="0.52" height="11.54" transform="translate(-0.96 6.48) rotate(-15.59)"/><rect class="cls-1" x="12.33" y="24.1" width="0.52" height="7.48"/><rect class="cls-1" x="21.38" y="24.1" width="0.52" height="7.48"/></g></g></svg>