<svg xmlns="http://www.w3.org/2000/svg" viewBox="0 0 46.21 46.26"><defs><style>.cls-1{fill:#ff5976;}</style></defs><title>verified</title><g id="Layer_2" data-name="Layer 2"><g id="Layer_15" data-name="Layer 15"><path class="cls-1" d="M43.72,23.32l2-3.21a3.26,3.26,0,0,0-1.06-4.51l-2.1-1.3a3.08,3.08,0,0,1-1.46-2.62V8.55a3.26,3.26,0,0,0-3.26-3.26H34.62A3.08,3.08,0,0,1,32,3.8L30.93,2.07A3.26,3.26,0,0,0,26.49,1l-1.24.72a3.08,3.08,0,0,1-3.13,0L20.1.46a3.26,3.26,0,0,0-4.44,1.08L14.18,3.91a3.08,3.08,0,0,1-2.62,1.45H8.74A3.26,3.26,0,0,0,5.47,8.62v3.23A3.08,3.08,0,0,1,4,14.51L2,15.66A3.26,3.26,0,0,0,.84,20.13l.7,1.18a3.08,3.08,0,0,1,0,3.15L.46,26.24a3.26,3.26,0,0,0,1.07,4.45L4,32.24a3.08,3.08,0,0,1,1.45,2.61v3.07a3.26,3.26,0,0,0,3.26,3.26h2.92a3.08,3.08,0,0,1,2.63,1.47l1.25,2a3.26,3.26,0,0,0,4.42,1.12l1.59-.92a3.08,3.08,0,0,1,3.11,0l1.47.86a3.26,3.26,0,0,0,4.43-1.1l1.28-2.07a3.08,3.08,0,0,1,2.62-1.46h3.32A3.26,3.26,0,0,0,41,37.87V35a3.08,3.08,0,0,1,1.5-2.65l2-1.18a3.26,3.26,0,0,0,1.15-4.44Zm-9.09-4.94L21,31.21a1.58,1.58,0,0,1-2.23-.07L13,24.88A2.26,2.26,0,0,1,13,21.75h0a2.26,2.26,0,0,1,3.24.05l3.06,3.26a1.44,1.44,0,0,0,2,.06l10.43-9.79a2.08,2.08,0,0,1,2.95.09h0A2.08,2.08,0,0,1,34.63,18.37Z"/></g></g></svg>