<svg xmlns="http://www.w3.org/2000/svg" viewBox="0 0 36.05 36.05"><defs><style>.cls-1{fill:#fff;}.cls-2{fill:none;stroke:#fff;stroke-miterlimit:10;}</style></defs><title>video</title><g id="Layer_2" data-name="Layer 2"><g id="Layer_15" data-name="Layer 15"><path class="cls-1" d="M21.29,17.85l-3.84-2.77-1.69-1.22V22.1c.09,0,.12,0,.17,0,1.8-1.29,3.59-2.59,5.39-3.88C21.56,18,21.45,18,21.29,17.85Z"/><path class="cls-1" d="M18.11.09A17.93,17.93,0,1,0,36,18.07,18,18,0,0,0,18.11.09Zm9,19.12L13.47,29.1a1.39,1.39,0,0,1-1.53.3A1.38,1.38,0,0,1,11.27,28c0-3.33,0-6.66,0-10s0-6.56,0-9.83c0-.61,0-1.18.65-1.5s1.1,0,1.6.32l13.62,9.84C28.23,17.62,28.24,18.42,27.15,19.21Z"/><path class="cls-2" d="M18,.5A17.52,17.52,0,1,0,35.55,18,17.52,17.52,0,0,0,18,.5Z"/></g></g></svg>