<svg xmlns="http://www.w3.org/2000/svg" viewBox="0 0 22.88 22.88"><defs><style>.cls-1{fill:#f7aa35;}</style></defs><title>whats app</title><g id="Layer_2" data-name="Layer 2"><g id="Layer_15" data-name="Layer 15"><path class="cls-1" d="M22.88,10.58c0,9.29-8.73,14.79-16.35,11.19a1.06,1.06,0,0,0-.79-.06c-1.06.28-2.12.58-3.19.84A1.66,1.66,0,0,1,.47,20.39c.28-1,.55-2.05.85-3.08a.79.79,0,0,0-.06-.64,11.43,11.43,0,0,1,16-15.07A10.83,10.83,0,0,1,22.88,10.58Zm-1.1.57a10.17,10.17,0,0,0-.65-3.32A10.36,10.36,0,1,0,2.32,16.37a1.2,1.2,0,0,1,.09,1c-.31,1.09-.6,2.19-.89,3.28-.19.73.12,1,.85.86,1.12-.28,2.24-.56,3.34-.88a1.39,1.39,0,0,1,1.1.11,10,10,0,0,0,4.13,1.08A10.41,10.41,0,0,0,21.78,11.15Z"/><path class="cls-1" d="M3.64,19.4c.16-.6.28-1.14.44-1.66a2.72,2.72,0,0,0-.25-2.17A8.45,8.45,0,0,1,4,7.06a8.66,8.66,0,1,1,6.93,13,7.34,7.34,0,0,1-3.12-.8A3.25,3.25,0,0,0,5,19C4.58,19.19,4.13,19.28,3.64,19.4Zm10.49-2.73c1.36,0,2.85-.73,2.84-2.24a.63.63,0,0,0-.39-.66c-.6-.27-1.2-.56-1.79-.86s-.78-.21-1.05.26a8,8,0,0,1-.55.7.59.59,0,0,1-.82.18,7.4,7.4,0,0,1-3.28-2.68c-.57-.84-.5-.8.07-1.39a1.11,1.11,0,0,0,.25-1.42C9.14,8,9,7.46,8.72,6.92c-.09-.21-.18-.43-.44-.48a1.56,1.56,0,0,0-1.58.44,3.31,3.31,0,0,0-.31,4,13,13,0,0,0,2.8,3.57A9.48,9.48,0,0,0,14.13,16.68Z"/></g></g></svg>