<svg xmlns="http://www.w3.org/2000/svg" viewBox="0 0 599.8 399.58"><defs><style>.cls-1{fill:#fff;}</style></defs><title>logo1</title><g id="Layer_2" data-name="Layer 2"><g id="Layer_3" data-name="Layer 3"><path class="cls-1" d="M243.92,19A141.33,141.33,0,1,0,386.42,159.14,141.33,141.33,0,0,0,243.92,19Zm1.88,257.54a116,116,0,1,1,115-116.92A116,116,0,0,1,245.8,276.52Z"/><path class="cls-1" d="M351,89.86a106,106,0,1,0,106,106A106,106,0,0,0,351,89.86Zm-.18,187.85A81.67,81.67,0,1,1,432.52,196,81.67,81.67,0,0,1,350.85,277.71Z"/><path class="cls-1" d="M359.33,1A36,36,0,1,0,402.82,27.4,36,36,0,0,0,359.33,1ZM372,52A16.4,16.4,0,1,1,384,32.2,16.4,16.4,0,0,1,372,52Z"/><path class="cls-1" d="M452.06,96.5a24.3,24.3,0,1,0,24.3,24.3A24.3,24.3,0,0,0,452.06,96.5Zm.13,35.51a11.08,11.08,0,1,1,11.08-11.08A11.08,11.08,0,0,1,452.18,132Z"/><path class="cls-1" d="M45.33,362.71h7.83L34.73,399.58,26.8,384.65l-7.44,14.93L0,362.71H8.66l11,21.26,3.4-6.57-7.69-14.69H24L35,384Z"/><path class="cls-1" d="M68.82,398.95V362.71H88.08v6.81H76.36v6.76H90v6.81H76.36v9H91.29v6.81Z"/><path class="cls-1" d="M125,362.71c10.46,0,19,7.78,19,18.09s-8.51,18.14-18.92,18.14H110.31V362.71Zm0,29.43a11.31,11.31,0,0,0,0-22.62h-7.15v22.62Z"/><path class="cls-1" d="M177.67,362.71c10.46,0,19,7.78,19,18.09s-8.51,18.14-18.92,18.14H163V362.71Zm0,29.43a11.31,11.31,0,0,0,0-22.62h-7.15v22.62Z"/><path class="cls-1" d="M223.2,398.95h-7.54V362.71h7.54Z"/><path class="cls-1" d="M269.5,362.71H277v36.87l-25.78-21.45v20.82h-7.54V362l25.78,21.65Z"/><path class="cls-1" d="M333.46,380.27a19,19,0,0,1-18.78,19.31,18.75,18.75,0,1,1,16-28.7l-6,4.38a11.28,11.28,0,0,0-9.92-6c-6.08,0-10.9,5.16-10.9,11.58s4.82,11.48,10.9,11.48c4.38,0,8.41-2.24,10-6.47h-9.83v-6.71h18.58Z"/><path class="cls-1" d="M391,362.08v36.87h-7.54V377.11l-11.77,8.51-11.77-8.51v21.84h-7.54V362.08l19.31,14.64Z"/><path class="cls-1" d="M410,380.8a18.75,18.75,0,1,1,18.78,18.78A18.7,18.7,0,0,1,410,380.8Zm7.73,0c0,6.47,4.82,11.53,11,11.53s11-5.06,11-11.53a11.27,11.27,0,0,0-11-11.53C422.56,369.28,417.75,374.43,417.75,380.8Z"/><path class="cls-1" d="M465,380.8a18.75,18.75,0,1,1,18.78,18.78A18.7,18.7,0,0,1,465,380.8Zm7.73,0c0,6.47,4.82,11.53,11,11.53s11-5.06,11-11.53a11.27,11.27,0,0,0-11-11.53C477.57,369.28,472.76,374.43,472.76,380.8Z"/><path class="cls-1" d="M536.23,362.71c10.46,0,19,7.78,19,18.09s-8.51,18.14-18.92,18.14H521.54V362.71Zm0,29.43a11.31,11.31,0,0,0,0-22.62h-7.15v22.62Z"/><path class="cls-1" d="M599.8,392.14v6.81H567.6l18.78-29.43H569.45v-6.81h29.72l-19,29.43Z"/></g></g></svg>