<svg xmlns="http://www.w3.org/2000/svg" viewBox="0 0 1357.8 904.55"><defs><style>.cls-1{fill:#2f1a35;}</style></defs><title>logo8</title><g id="Layer_2" data-name="Layer 2"><g id="Layer_3" data-name="Layer 3"><path class="cls-1" d="M552.18,43c-176.7,1.46-318.75,145.87-317.29,322.57S380.76,684.28,557.46,682.82,876.21,536.95,874.75,360.25,728.88,41.5,552.18,43Zm4.25,583c-145,1.2-263.49-115.37-264.69-260.36S407.12,102.13,552.1,100.93,815.59,216.3,816.79,361.29,701.42,624.78,556.44,626Z"/><path class="cls-1" d="M794.66,203.42c-132.53,0-240,107.43-240,240s107.43,240,240,240,240-107.43,240-240S927.18,203.42,794.66,203.42Zm-.42,425.25c-102.1,0-184.88-82.77-184.88-184.88s82.77-184.88,184.88-184.88,184.88,82.77,184.88,184.88S896.34,628.66,794.24,628.66Z"/><path class="cls-1" d="M813.43,2.36A81.41,81.41,0,1,0,911.89,62,81.4,81.4,0,0,0,813.43,2.36Zm28.75,115.42a37.12,37.12,0,1,1,27.21-44.89A37.12,37.12,0,0,1,842.18,117.78Z"/><path class="cls-1" d="M1023.34,218.45a55,55,0,1,0,55,55A55,55,0,0,0,1023.34,218.45Zm.29,80.39a25.09,25.09,0,1,1,25.09-25.09A25.09,25.09,0,0,1,1023.63,298.84Z"/><path class="cls-1" d="M102.62,821.08h17.73L78.62,904.55l-17.95-33.8-16.85,33.8L0,821.08H19.6L44.48,869.2l7.71-14.87-17.4-33.25h19.6L79.28,869.2Z"/><path class="cls-1" d="M155.8,903.12v-82h43.6V836.5H172.86v15.31H203.7v15.42H172.86V887.7h33.8v15.42Z"/><path class="cls-1" d="M283,821.08c23.67,0,42.94,17.62,42.94,41,0,23.56-19.27,41.07-42.83,41.07H249.72v-82Zm.11,66.62c14.2,0,25.32-10.9,25.32-25.66S297.28,836.5,283,836.5H266.78v51.2Z"/><path class="cls-1" d="M402.21,821.08c23.67,0,42.94,17.62,42.94,41,0,23.56-19.27,41.07-42.83,41.07H369v-82Zm.11,66.62c14.2,0,25.32-10.9,25.32-25.66s-11.12-25.55-25.43-25.55H386v51.2Z"/><path class="cls-1" d="M505.27,903.12H488.2v-82h17.07Z"/><path class="cls-1" d="M610.09,821.08h17.07v83.46L568.8,856v47.13H551.73V819.54l58.36,49Z"/><path class="cls-1" d="M754.88,860.83c0,24.22-18.94,43.71-42.5,43.71a42.45,42.45,0,1,1,36.12-65l-13.65,9.91a25.53,25.53,0,0,0-22.46-13.54c-13.76,0-24.66,11.67-24.66,26.21s10.9,26,24.66,26c9.91,0,19-5.06,22.68-14.64H712.81V858.3h42.06Z"/><path class="cls-1" d="M885.13,819.65v83.46H868.06V853.68l-26.65,19.27-26.65-19.27v49.44H797.7V819.65l43.71,33.14Z"/><path class="cls-1" d="M928.17,862a42.45,42.45,0,1,1,42.5,42.5A42.34,42.34,0,0,1,928.17,862Zm17.51,0c0,14.64,10.9,26.1,25,26.1,13.87,0,24.89-11.45,24.89-26.1,0-14.42-11.12-26.1-25-26.1S945.68,847.62,945.68,862Z"/><path class="cls-1" d="M1052.7,862a42.45,42.45,0,1,1,42.5,42.5A42.34,42.34,0,0,1,1052.7,862Zm17.51,0c0,14.64,10.9,26.1,25,26.1,13.87,0,24.89-11.45,24.89-26.1,0-14.42-11.12-26.1-25-26.1S1070.21,847.62,1070.21,862Z"/><path class="cls-1" d="M1213.89,821.08c23.67,0,42.94,17.62,42.94,41,0,23.56-19.27,41.07-42.83,41.07h-33.36v-82Zm.11,66.62c14.2,0,25.32-10.9,25.32-25.66s-11.12-25.55-25.43-25.55h-16.19v51.2Z"/><path class="cls-1" d="M1357.8,887.7v15.42h-72.89l42.5-66.62h-38.32V821.08h67.28l-43.05,66.62Z"/></g></g></svg>