<svg xmlns="http://www.w3.org/2000/svg" viewBox="0 0 1331.8 887.23"><defs><style>.cls-1{fill:#f0326e;}</style></defs><title>logo7</title><g id="Layer_2" data-name="Layer 2"><g id="Layer_3" data-name="Layer 3"><path class="cls-1" d="M541.61,42.14C368.29,43.57,229,185.22,230.39,358.53S373.47,671.18,546.79,669.75,859.43,526.67,858,353.35,714.92,40.71,541.61,42.14ZM545.78,614c-142.21,1.17-258.45-113.16-259.62-255.37S399.32,100.17,541.53,99,800,212.16,801.15,354.37,688,612.82,545.78,614Z"/><path class="cls-1" d="M779.44,199.52c-130,0-235.36,105.37-235.36,235.36S649.45,670.24,779.44,670.24,1014.8,564.87,1014.8,434.88,909.43,199.52,779.44,199.52ZM779,616.63A181.34,181.34,0,1,1,960.37,435.29,181.34,181.34,0,0,1,779,616.63Z"/><path class="cls-1" d="M797.85,2.32a79.85,79.85,0,1,0,96.57,58.52A79.84,79.84,0,0,0,797.85,2.32Zm28.2,113.21a36.41,36.41,0,1,1,26.68-44A36.41,36.41,0,0,1,826.05,115.53Z"/><path class="cls-1" d="M1003.75,214.27a54,54,0,1,0,54,54A54,54,0,0,0,1003.75,214.27Zm.28,78.85a24.61,24.61,0,1,1,24.61-24.61A24.61,24.61,0,0,1,1004,293.12Z"/><path class="cls-1" d="M100.66,805.36H118L77.11,887.23l-17.6-33.16L43,887.23,0,805.36H19.22l24.41,47.2L51.19,838,34.13,805.36H53.35l24.41,47.2Z"/><path class="cls-1" d="M152.81,885.82V805.36h42.77v15.12h-26v15H199.8v15.12H169.55V870.7h33.16v15.12Z"/><path class="cls-1" d="M277.55,805.36c23.22,0,42.12,17.28,42.12,40.18,0,23.11-18.9,40.28-42,40.28H244.93V805.36Zm.11,65.34c13.93,0,24.84-10.69,24.84-25.16s-10.91-25.06-24.95-25.06H261.67V870.7Z"/><path class="cls-1" d="M394.51,805.36c23.22,0,42.12,17.28,42.12,40.18,0,23.11-18.9,40.28-42,40.28H361.89V805.36Zm.11,65.34c13.93,0,24.84-10.69,24.84-25.16s-10.91-25.06-24.95-25.06H378.63V870.7Z"/><path class="cls-1" d="M495.59,885.82H478.85V805.36h16.74Z"/><path class="cls-1" d="M598.41,805.36h16.74v81.87L557.91,839.6v46.23H541.17v-82l57.24,48.06Z"/><path class="cls-1" d="M740.42,844.35c0,23.76-18.58,42.88-41.69,42.88a41.64,41.64,0,1,1,35.42-63.72l-13.39,9.72a25,25,0,0,0-22-13.28c-13.5,0-24.19,11.45-24.19,25.7s10.69,25.49,24.19,25.49c9.72,0,18.68-5,22.25-14.36H699.16v-14.9h41.26Z"/><path class="cls-1" d="M868.18,804v81.87H851.44V837.33l-26.14,18.9-26.14-18.9v48.49H782.42V804l42.88,32.51Z"/><path class="cls-1" d="M910.4,845.54a41.63,41.63,0,1,1,41.69,41.69A41.53,41.53,0,0,1,910.4,845.54Zm17.17,0c0,14.36,10.69,25.6,24.52,25.6,13.61,0,24.41-11.23,24.41-25.6,0-14.15-10.91-25.6-24.52-25.6S927.57,831.39,927.57,845.54Z"/><path class="cls-1" d="M1032.54,845.54a41.63,41.63,0,1,1,41.69,41.69A41.53,41.53,0,0,1,1032.54,845.54Zm17.17,0c0,14.36,10.69,25.6,24.52,25.6,13.61,0,24.41-11.23,24.41-25.6,0-14.15-10.91-25.6-24.52-25.6S1049.71,831.39,1049.71,845.54Z"/><path class="cls-1" d="M1190.65,805.36c23.22,0,42.12,17.28,42.12,40.18,0,23.11-18.9,40.28-42,40.28H1158V805.36Zm.11,65.34c13.93,0,24.84-10.69,24.84-25.16s-10.91-25.06-24.95-25.06h-15.88V870.7Z"/><path class="cls-1" d="M1331.8,870.7v15.12h-71.5L1302,820.48h-37.59V805.36h66l-42.23,65.34Z"/></g></g></svg>